<svg width="24" height="24" viewBox="0 0 24 24" fill="none" xmlns="http://www.w3.org/2000/svg">
<path d="M8 13.5676L10.0417 16.5948C10.1191 16.7156 10.2231 16.8154 10.3449 16.8858C10.4667 16.9562 10.6028 16.9952 10.742 16.9996C10.8811 17.0039 11.0193 16.9735 11.1449 16.9108C11.2705 16.8481 11.38 16.755 11.4642 16.6392L18 8" stroke="#0CE2AF" stroke-width="2" stroke-linecap="round" stroke-linejoin="round"/>
<path d="M3 12.5C3 15.0196 4.00089 17.4359 5.78249 19.2175C7.56408 20.9991 9.98044 22 12.5 22C15.0196 22 17.4359 20.9991 19.2175 19.2175C20.9991 17.4359 22 15.0196 22 12.5C22 9.98044 20.9991 7.56408 19.2175 5.78249C17.4359 4.00089 15.0196 3 12.5 3C9.98044 3 7.56408 4.00089 5.78249 5.78249C4.00089 7.56408 3 9.98044 3 12.5V12.5Z" stroke="#0CE2AF" stroke-width="2" stroke-linecap="round" stroke-linejoin="round"/>
</svg>
