<svg width="14" height="15" viewBox="0 0 14 15" fill="none" xmlns="http://www.w3.org/2000/svg">
<path d="M13.7812 7.75C13.7812 4.03125 10.7188 0.96875 7 0.96875C3.25391 0.96875 0.21875 4.03125 0.21875 7.75C0.21875 11.4961 3.25391 14.5312 7 14.5312C10.7188 14.5312 13.7812 11.4961 13.7812 7.75ZM7 9.11719C7.68359 9.11719 8.25781 9.69141 8.25781 10.375C8.25781 11.0859 7.68359 11.6328 7 11.6328C6.28906 11.6328 5.74219 11.0859 5.74219 10.375C5.74219 9.69141 6.28906 9.11719 7 9.11719ZM5.79688 4.60547C5.76953 4.41406 5.93359 4.25 6.125 4.25H7.84766C8.03906 4.25 8.20312 4.41406 8.17578 4.60547L7.98438 8.32422C7.95703 8.51562 7.82031 8.625 7.65625 8.625H6.31641C6.15234 8.625 6.01562 8.51562 5.98828 8.32422L5.79688 4.60547Z" fill="#FC0E47"/>
</svg>
