<svg width="32" height="32" viewBox="0 0 32 32" fill="none" xmlns="http://www.w3.org/2000/svg">
<path d="M29 12C29.3065 11.9999 29.6091 12.0703 29.8841 12.2057C30.1592 12.3411 30.3993 12.5379 30.5863 12.781C30.7731 13.024 30.9016 13.3068 30.9617 13.6073C31.022 13.908 31.0123 14.2184 30.9333 14.5147L28 28.5147C27.8865 28.9407 27.6355 29.3173 27.2859 29.586C26.9361 29.8547 26.5076 30.0001 26.0667 30H3.26267M29 12V8C29 7.46957 28.7893 6.96085 28.4143 6.58579C28.0392 6.21072 27.5304 6 27 6H11V4C11 3.46957 10.7893 2.96085 10.4142 2.58579C10.0391 2.21072 9.53043 2 9 2H3C2.46957 2 1.96085 2.21072 1.58579 2.58579C1.21071 2.96085 1 3.46957 1 4V27.7333C1.00753 28.278 1.2109 28.8016 1.57291 29.2085C1.93492 29.6155 2.43136 29.8785 2.97139 29.9493C3.5114 30.0203 4.05891 29.8944 4.51369 29.5947C4.96848 29.2949 5.30015 28.8416 5.448 28.3173L8.58267 13.4453C8.703 13.0285 8.95563 12.662 9.30244 12.4013C9.64925 12.1406 10.0715 11.9998 10.5053 12H29Z" stroke="#6075AA" stroke-width="2" stroke-linecap="round" stroke-linejoin="round"/>
<path d="M13 17.5C12.7239 17.5 12.5 17.2761 12.5 17C12.5 16.7239 12.7239 16.5 13 16.5" stroke="#6075AA" stroke-width="2"/>
<path d="M13 17.5C13.2761 17.5 13.5 17.2761 13.5 17C13.5 16.7239 13.2761 16.5 13 16.5" stroke="#6075AA" stroke-width="2"/>
<path d="M24.5055 26L20.6241 20.18C20.534 20.0447 20.4121 19.9335 20.2692 19.8558C20.1264 19.7782 19.9667 19.7366 19.8041 19.7347C19.6415 19.7327 19.4808 19.7704 19.3361 19.8446C19.1913 19.9187 19.0669 20.027 18.9734 20.16L16.3068 23.9614L14.6668 22.6427C14.5585 22.5563 14.4335 22.4932 14.2996 22.4576C14.1657 22.4222 14.0259 22.4147 13.8889 22.436C13.7521 22.4574 13.621 22.5068 13.5044 22.5815C13.3876 22.656 13.2876 22.7542 13.2108 22.8694L11.1201 26" stroke="#6075AA" stroke-width="2" stroke-linecap="round" stroke-linejoin="round"/>
</svg>
