<svg width="48" height="48" viewBox="0 0 48 48" fill="none" xmlns="http://www.w3.org/2000/svg">
<path d="M44.4937 35.5538C44.2137 36.6138 43.5237 37.4838 42.5637 38.0138L28.9737 45.5238C27.5437 46.3138 25.9637 46.7138 24.3637 46.7138C23.5637 46.7138 22.7637 46.6138 21.9737 46.4138L4.00001 42.2238C3.46001 42.0838 3.14001 41.5438 3.28001 41.0038C3.42001 40.4738 3.96001 40.1438 4.50001 40.2838L22.4837 44.4638C24.3537 44.9438 26.3237 44.6938 28.0137 43.7638L41.6037 36.2538C42.0837 35.9938 42.4237 35.5538 42.5637 35.0238C42.7037 34.4938 42.6337 33.9438 42.3437 33.4838C41.9237 32.7838 41.1337 32.4138 40.3237 32.5338L32.1237 34.3438C31.5837 34.4638 31.0537 34.1238 30.9337 33.5838C30.8137 33.0438 31.1537 32.5138 31.6937 32.3938L39.9537 30.5638C41.6337 30.3038 43.2137 31.0438 44.0537 32.4438C44.6137 33.3838 44.7737 34.4838 44.4837 35.5338L44.4937 35.5538ZM6.54368 31.3938L11.1137 28.4938C12.5937 27.5538 14.3637 27.1938 16.0937 27.4838L24.9037 28.9438C25.4937 29.1038 25.9837 29.5038 26.2437 30.0638C26.5037 30.6238 26.5037 31.2538 26.2437 31.8138C25.9137 32.5238 25.2237 32.9738 24.4437 33.0038L13.8137 33.3638C13.2637 33.3838 12.8337 33.8438 12.8437 34.3938C12.8637 34.9338 13.3037 35.3638 13.8437 35.3638C13.8537 35.3638 13.8637 35.3638 13.8737 35.3638L24.5037 35.0038C26.0437 34.9538 27.3937 34.0538 28.0437 32.6638C28.5537 31.5738 28.5537 30.3138 28.0437 29.2238C27.5337 28.1338 26.5637 27.3238 25.3037 27.0038L16.4037 25.5238C14.1837 25.1538 11.9237 25.6138 10.0237 26.8238L3.5 31C3.03 31.3 2.9 31.91 3.19 32.38C3.48 32.85 4.1 32.99 4.57 32.69L6.54368 31.3938ZM16.0037 18.6638C16.2037 18.8638 16.4537 18.9538 16.7137 18.9538C16.9737 18.9538 17.2237 18.8538 17.4237 18.6638C17.8137 18.2738 17.8137 17.6438 17.4237 17.2538L10.5637 10.3938L16.9037 4.05377C17.2937 3.66377 17.2937 3.03377 16.9037 2.64377C16.5137 2.25377 15.8837 2.25377 15.4937 2.64377L8.43368 9.68377C8.04368 10.0738 8.04368 10.7038 8.43368 11.0938L16.0037 18.6638ZM39.2837 10.9138L32.9437 17.2538C32.5537 17.6438 32.5537 18.2738 32.9437 18.6638C33.1437 18.8638 33.3937 18.9538 33.6537 18.9538C33.9137 18.9538 34.1637 18.8538 34.3637 18.6638L41.4137 11.6138C41.8037 11.2238 41.8037 10.5938 41.4137 10.2038L33.8437 2.63377C33.4537 2.24377 32.8237 2.24377 32.4337 2.63377C32.0437 3.02377 32.0437 3.65377 32.4337 4.04377L39.2937 10.9038L39.2837 10.9138ZM22.9237 20.6838C22.9837 20.6838 23.0337 20.6938 23.0937 20.6938C23.5737 20.6938 23.9937 20.3538 24.0737 19.8638L27.2837 1.16377C27.3737 0.623772 27.0137 0.103772 26.4637 0.013772C25.9137 -0.076228 25.4037 0.283772 25.3137 0.833772L22.1137 19.5338C22.0237 20.0738 22.3837 20.5938 22.9337 20.6838H22.9237Z" fill="url(#paint0_linear_353_402)"/>
<defs>
<linearGradient id="paint0_linear_353_402" x1="11.3336" y1="43.4138" x2="41.3436" y2="2.58377" gradientUnits="userSpaceOnUse">
<stop stop-color="#671BC9"/>
<stop offset="1" stop-color="#FD0F9E"/>
</linearGradient>
</defs>
</svg>
