<svg width="14" height="20" viewBox="0 0 14 20" fill="none" xmlns="http://www.w3.org/2000/svg">
<path d="M2.2 1C1.88174 1 1.57652 1.12643 1.35147 1.35147C1.12643 1.57652 1 1.88174 1 2.2V4.0936C1 5.6849 1.63214 7.21102 2.75736 8.33624C3.88258 9.46146 5.4087 10.0936 7 10.0936C8.5913 10.0936 10.1174 9.46146 11.2426 8.33624C12.3679 7.21102 13 5.6849 13 4.0936V2.2C13 1.88174 12.8736 1.57652 12.6485 1.35147C12.4235 1.12643 12.1183 1 11.8 1H2.2Z" stroke="#FDBA0F" stroke-width="2" stroke-linecap="round" stroke-linejoin="round"/>
<path d="M2.2 19.0001C1.88174 19.0001 1.57652 18.8737 1.35147 18.6486C1.12643 18.4236 1 18.1184 1 17.8001V15.9065C1 14.3152 1.63214 12.7891 2.75736 11.6639C3.88258 10.5386 5.4087 9.90649 7 9.90649C8.5913 9.90649 10.1174 10.5386 11.2426 11.6639C12.3679 12.7891 13 14.3152 13 15.9065V17.8001C13 18.1184 12.8736 18.4236 12.6485 18.6486C12.4235 18.8737 12.1183 19.0001 11.8 19.0001H2.2Z" stroke="#FDBA0F" stroke-width="2" stroke-linecap="round" stroke-linejoin="round"/>
<path d="M1.78174 7H12.2185" stroke="#FDBA0F" stroke-width="2" stroke-linecap="round" stroke-linejoin="round"/>
<path d="M12.2385 18.9176C11.2113 16.7608 9.25052 14.8 7.00012 14.8C4.74972 14.8 2.78892 16.7608 1.76172 18.9176" stroke="#FDBA0F" stroke-width="2" stroke-linecap="round" stroke-linejoin="round"/>
</svg>
