<svg width="24" height="32" viewBox="0 0 24 32" fill="none" xmlns="http://www.w3.org/2000/svg">
<path d="M19.5 5.5H1.45312C0.65625 5.5 0 6.20312 0 7.04688V25C0 25.8438 0.65625 26.5 1.45312 26.5H19.5C20.2969 26.5 21 25.8438 21 25V7.04688C21 6.20312 20.2969 5.5 19.5 5.5ZM6.32812 23.5H3.23438V13.5156H6.32812V23.5ZM4.78125 12.1094C3.75 12.1094 2.95312 11.3125 2.95312 10.3281C2.95312 9.34375 3.75 8.5 4.78125 8.5C5.76562 8.5 6.5625 9.34375 6.5625 10.3281C6.5625 11.3125 5.76562 12.1094 4.78125 12.1094ZM18 23.5H14.8594V18.625C14.8594 17.5 14.8594 16 13.2656 16C11.625 16 11.3906 17.2656 11.3906 18.5781V23.5H8.29688V13.5156H11.25V14.875H11.2969C11.7188 14.0781 12.75 13.2344 14.25 13.2344C17.3906 13.2344 18 15.3438 18 18.0156V23.5Z" fill="url(#paint0_linear_158_734)"/>
<defs>
<linearGradient id="paint0_linear_158_734" x1="14.3746" y1="-23.75" x2="55.0397" y2="-3.45916" gradientUnits="userSpaceOnUse">
<stop stop-color="#671BC9"/>
<stop offset="1" stop-color="#FD0F9E"/>
</linearGradient>
</defs>
</svg>
