<svg width="48" height="48" viewBox="0 0 48 48" fill="none" xmlns="http://www.w3.org/2000/svg">
<path d="M33 48C26.93 48 22 43.07 22 37C22 30.93 26.93 26 33 26C39.07 26 44 30.93 44 37C44 43.07 39.07 48 33 48ZM33 28C28.04 28 24 32.04 24 37C24 41.96 28.04 46 33 46C37.96 46 42 41.96 42 37C42 32.04 37.96 28 33 28ZM20.01 46H10C7.24 46 5 43.62 5 40.69V8.38C5 5.45 7.24 3.07 10 3.07H15.44C15.86 1.31 17.45 0 19.33 0H26.66C28.55 0 30.13 1.31 30.55 3.07H35.99C38.75 3.07 40.99 5.35 40.99 8.16V23.35C40.99 23.9 40.54 24.35 39.99 24.35C39.44 24.35 38.99 23.9 38.99 23.35V8.16C38.99 6.45 37.64 5.07 35.99 5.07H30.55C30.13 6.83 28.55 8.14 26.66 8.14H19.33C17.44 8.14 15.86 6.83 15.44 5.07H10C8.35 5.07 7 6.55 7 8.38V40.69C7 42.51 8.35 44 10 44H20.01C20.56 44 21.01 44.45 21.01 45C21.01 45.55 20.56 46 20.01 46ZM19.33 2C18.23 2 17.33 2.9 17.33 4V4.14C17.33 5.24 18.23 6.14 19.33 6.14H26.66C27.76 6.14 28.66 5.24 28.66 4.14V4C28.66 2.9 27.76 2 26.66 2H19.33ZM31.38 41.38C31.12 41.38 30.87 41.28 30.67 41.09L27.79 38.21C27.4 37.82 27.4 37.19 27.79 36.8C28.18 36.41 28.81 36.41 29.2 36.8L31.38 38.98L37.3 33.06C37.69 32.67 38.32 32.67 38.71 33.06C39.1 33.45 39.1 34.08 38.71 34.47L32.08 41.1C31.88 41.3 31.63 41.39 31.37 41.39L31.38 41.38ZM19 32.49H12.09C11.54 32.49 11.09 32.04 11.09 31.49C11.09 30.94 11.54 30.49 12.09 30.49H19C19.55 30.49 20 30.94 20 31.49C20 32.04 19.55 32.49 19 32.49ZM34.45 23.99H12.09C11.54 23.99 11.09 23.54 11.09 22.99C11.09 22.44 11.54 21.99 12.09 21.99H34.45C35 21.99 35.45 22.44 35.45 22.99C35.45 23.54 35 23.99 34.45 23.99ZM34.45 15.49H12.09C11.54 15.49 11.09 15.04 11.09 14.49C11.09 13.94 11.54 13.49 12.09 13.49H34.45C35 13.49 35.45 13.94 35.45 14.49C35.45 15.04 35 15.49 34.45 15.49Z" fill="url(#paint0_linear_353_400)"/>
<defs>
<linearGradient id="paint0_linear_353_400" x1="-2.07" y1="41.25" x2="66.96" y2="-3.05" gradientUnits="userSpaceOnUse">
<stop stop-color="#671BC9"/>
<stop offset="1" stop-color="#FD0F9E"/>
</linearGradient>
</defs>
</svg>
