<svg width="1193" height="183" viewBox="0 0 1193 183" fill="none" xmlns="http://www.w3.org/2000/svg">
<path d="M15.6 131.4L14.2333 132.86L14.2434 132.87L15.6 131.4ZM15.6 14.8L16.9566 16.2696L16.9666 16.2602L15.6 14.8ZM99.6 14.8L98.2333 16.2603L98.2434 16.2696L99.6 14.8ZM99.6 131.4L100.957 132.87L100.967 132.86L99.6 131.4ZM80.6 113.6L79.1525 112.22L80.6 113.6ZM80.6 32.4L79.1525 33.7801L80.6 32.4ZM34.6 32.4L33.1693 31.0025L33.1608 31.0111L33.1525 31.0198L34.6 32.4ZM34.6 113.6L33.1525 114.98L33.1608 114.989L33.1693 114.997L34.6 113.6ZM57.6 143.8C40.3748 143.8 26.9028 139.111 16.9566 129.93L14.2434 132.87C25.0973 142.889 39.6252 147.8 57.6 147.8V143.8ZM16.9666 129.94C7.07154 120.679 2 107.402 2 89.8H-2C-2 108.198 3.32846 122.654 14.2334 132.86L16.9666 129.94ZM2 89.8V56.2H-2V89.8H2ZM2 56.2C2 38.5968 7.07192 25.3939 16.9566 16.2696L14.2434 13.3304C3.32808 23.4061 -2 37.8032 -2 56.2H2ZM16.9666 16.2602C26.9136 6.95089 40.382 2.19999 57.6 2.19999V-1.80001C39.618 -1.80001 25.0864 3.18243 14.2334 13.3398L16.9666 16.2602ZM57.6 2.19999C74.818 2.19999 88.2864 6.95089 98.2334 16.2602L100.967 13.3398C90.1136 3.18243 75.582 -1.80001 57.6 -1.80001V2.19999ZM98.2434 16.2696C108.128 25.3939 113.2 38.5968 113.2 56.2H117.2C117.2 37.8032 111.872 23.4061 100.957 13.3304L98.2434 16.2696ZM113.2 56.2V89.8H117.2V56.2H113.2ZM113.2 89.8C113.2 107.402 108.128 120.679 98.2334 129.94L100.967 132.86C111.872 122.654 117.2 108.198 117.2 89.8H113.2ZM98.2434 129.93C88.2973 139.111 74.8252 143.8 57.6 143.8V147.8C75.5748 147.8 90.1028 142.889 100.957 132.87L98.2434 129.93ZM57.6 124.2C67.8705 124.2 76.1149 121.202 82.0475 114.98L79.1525 112.22C74.1518 117.465 67.0628 120.2 57.6 120.2V124.2ZM82.0475 114.98C87.9411 108.799 90.8 100.599 90.8 90.6H86.8C86.8 99.8014 84.1922 106.934 79.1525 112.22L82.0475 114.98ZM90.8 90.6V55.4H86.8V90.6H90.8ZM90.8 55.4C90.8 45.4014 87.9411 37.201 82.0475 31.0198L79.1525 33.7801C84.1922 39.0657 86.8 46.1986 86.8 55.4H90.8ZM82.0475 31.0198C76.1149 24.7978 67.8705 21.8 57.6 21.8V25.8C67.0628 25.8 74.1518 28.5355 79.1525 33.7801L82.0475 31.0198ZM57.6 21.8C47.4517 21.8 39.224 24.8036 33.1693 31.0025L36.0308 33.7975C41.176 28.5297 48.2816 25.8 57.6 25.8V21.8ZM33.1525 31.0198C27.2589 37.201 24.4 45.4014 24.4 55.4H28.4C28.4 46.1986 31.0078 39.0657 36.0475 33.7801L33.1525 31.0198ZM24.4 55.4V90.6H28.4V55.4H24.4ZM24.4 90.6C24.4 100.599 27.2589 108.799 33.1525 114.98L36.0475 112.22C31.0078 106.934 28.4 99.8014 28.4 90.6H24.4ZM33.1693 114.997C39.224 121.196 47.4517 124.2 57.6 124.2V120.2C48.2816 120.2 41.176 117.47 36.0308 112.203L33.1693 114.997ZM139.156 183H137.156V185H139.156V183ZM139.156 43.8V41.8H137.156V43.8H139.156ZM163.956 43.8H165.956V41.8H163.956V43.8ZM163.956 55.8H161.956V57.8H163.956V55.8ZM167.556 55.8V57.8H168.702L169.282 56.8114L167.556 55.8ZM178.156 45.6L179.199 47.3066L179.216 47.2961L179.233 47.2854L178.156 45.6ZM220.956 47L219.942 48.7239L219.955 48.7313L219.968 48.7386L220.956 47ZM237.356 64.2L239.113 63.2445H239.113L237.356 64.2ZM237.356 122.6L239.113 123.556H239.113L237.356 122.6ZM220.956 140L221.945 141.739L221.958 141.731L221.97 141.724L220.956 140ZM183.556 143.6L184.225 141.715L184.207 141.709L184.189 141.703L183.556 143.6ZM173.756 138.4L172.383 139.854L172.424 139.893L172.468 139.93L173.756 138.4ZM167.956 131.6L169.635 130.514L169.044 129.6H167.956V131.6ZM164.356 131.6V129.6H162.356V131.6H164.356ZM164.356 183V185H166.356V183H164.356ZM210.556 116.4L211.951 117.833L211.952 117.832L210.556 116.4ZM210.556 70.6L209.161 72.0325L209.17 72.0418L209.18 72.0509L210.556 70.6ZM171.756 70.6L173.133 72.0509L173.142 72.0418L173.152 72.0325L171.756 70.6ZM171.756 116.4L170.361 117.832L170.37 117.842L170.38 117.851L171.756 116.4ZM141.156 183V43.8H137.156V183H141.156ZM139.156 45.8H163.956V41.8H139.156V45.8ZM161.956 43.8V55.8H165.956V43.8H161.956ZM163.956 57.8H167.556V53.8H163.956V57.8ZM169.282 56.8114C171.344 53.2927 174.61 50.111 179.199 47.3066L177.113 43.8934C172.102 46.9557 168.301 50.5739 165.831 54.7886L169.282 56.8114ZM179.233 47.2854C183.577 44.51 190.005 43 198.756 43V39C189.64 39 182.335 40.5566 177.079 43.9146L179.233 47.2854ZM198.756 43C206.405 43 213.454 44.9073 219.942 48.7239L221.97 45.2761C214.858 41.0927 207.108 39 198.756 39V43ZM219.968 48.7386C226.41 52.4018 231.625 57.8472 235.599 65.1555L239.113 63.2445C234.821 55.3528 229.103 49.3315 221.945 45.2614L219.968 48.7386ZM235.599 65.1555C239.538 72.3982 241.556 81.2523 241.556 91.8H245.556C245.556 80.7477 243.441 71.2018 239.113 63.2445L235.599 65.1555ZM241.556 91.8V95H245.556V91.8H241.556ZM241.556 95C241.556 105.548 239.538 114.402 235.599 121.644L239.113 123.556C243.441 115.598 245.556 106.052 245.556 95H241.556ZM235.599 121.644C231.622 128.957 226.4 134.478 219.942 138.276L221.97 141.724C229.113 137.522 234.824 131.443 239.113 123.556L235.599 121.644ZM219.968 138.261C213.476 141.953 206.418 143.8 198.756 143.8V147.8C207.095 147.8 214.836 145.781 221.945 141.739L219.968 138.261ZM198.756 143.8C192.906 143.8 188.081 143.083 184.225 141.715L182.887 145.485C187.298 147.05 192.606 147.8 198.756 147.8V143.8ZM184.189 141.703C180.366 140.428 177.34 138.803 175.045 136.87L172.468 139.93C175.24 142.264 178.747 144.105 182.924 145.497L184.189 141.703ZM175.13 136.946C172.821 134.766 170.998 132.62 169.635 130.514L166.277 132.687C167.847 135.113 169.891 137.501 172.383 139.854L175.13 136.946ZM167.956 129.6H164.356V133.6H167.956V129.6ZM162.356 131.6V183H166.356V131.6H162.356ZM164.356 181H139.156V185H164.356V181ZM191.156 125.8C199.48 125.8 206.468 123.172 211.951 117.833L209.161 114.967C204.511 119.495 198.566 121.8 191.156 121.8V125.8ZM211.952 117.832C217.651 112.279 220.356 104.359 220.356 94.4H216.356C216.356 103.641 213.861 110.387 209.161 114.968L211.952 117.832ZM220.356 94.4V92.4H216.356V94.4H220.356ZM220.356 92.4C220.356 82.4449 217.652 74.5753 211.933 69.1491L209.18 72.0509C213.86 76.4913 216.356 83.155 216.356 92.4H220.356ZM211.952 69.1675C206.352 63.7116 199.374 61 191.156 61V65C198.406 65 204.36 67.355 209.161 72.0325L211.952 69.1675ZM191.156 61C182.939 61 175.96 63.7116 170.361 69.1675L173.152 72.0325C177.952 67.355 183.907 65 191.156 65V61ZM170.38 69.1491C164.66 74.5753 161.956 82.4449 161.956 92.4H165.956C165.956 83.155 168.452 76.4913 173.133 72.0509L170.38 69.1491ZM161.956 92.4V94.4H165.956V92.4H161.956ZM161.956 94.4C161.956 104.359 164.661 112.279 170.361 117.832L173.152 114.968C168.451 110.387 165.956 103.641 165.956 94.4H161.956ZM170.38 117.851C175.982 123.166 182.955 125.8 191.156 125.8V121.8C183.891 121.8 177.93 119.501 173.133 114.949L170.38 117.851ZM285.695 139.6L284.703 141.336L284.721 141.347L284.74 141.357L285.695 139.6ZM268.095 121.8L266.331 122.743L266.341 122.761L266.351 122.779L268.095 121.8ZM268.095 65.2L269.852 66.1555L269.856 66.1492L269.859 66.1427L268.095 65.2ZM285.495 47.4L286.464 49.1498L286.476 49.1432L286.488 49.1365L285.495 47.4ZM336.895 47.6L335.852 49.3066L335.864 49.3136L335.876 49.3206L336.895 47.6ZM353.695 65.6L351.919 66.5188L351.922 66.5252L351.925 66.5315L353.695 65.6ZM359.695 100.8V102.8H361.695V100.8H359.695ZM287.495 100.8V98.8H285.415L285.497 100.878L287.495 100.8ZM328.295 119.2L326.941 117.728L328.295 119.2ZM335.895 109L336.824 107.229L334.965 106.254L334.081 108.158L335.895 109ZM356.495 119.8L358.256 120.748L359.215 118.968L357.424 118.029L356.495 119.8ZM348.295 131.2L346.787 129.886L346.784 129.89L348.295 131.2ZM334.295 141.6L335.157 143.405L335.173 143.397L335.19 143.389L334.295 141.6ZM287.695 82L285.721 81.6786L285.343 84H287.695V82ZM334.095 82V84H336.29L336.087 81.8148L334.095 82ZM327.095 68.2L325.785 69.7114L325.798 69.722L325.81 69.7324L327.095 68.2ZM311.895 143.8C302.315 143.8 293.919 141.796 286.651 137.843L284.74 141.357C292.672 145.671 301.742 147.8 311.895 147.8V143.8ZM286.688 137.864C279.54 133.779 273.931 128.11 269.839 120.821L266.351 122.779C270.793 130.69 276.917 136.888 284.703 141.336L286.688 137.864ZM269.859 120.857C265.907 113.463 263.895 104.732 263.895 94.6H259.895C259.895 105.268 262.017 114.67 266.331 122.743L269.859 120.857ZM263.895 94.6V92.2H259.895V94.6H263.895ZM263.895 92.2C263.895 82.0666 265.908 73.4085 269.852 66.1555L266.338 64.2445C262.016 72.1915 259.895 81.5334 259.895 92.2H263.895ZM269.859 66.1427C273.816 58.7396 279.344 53.091 286.464 49.1498L284.527 45.6502C276.713 49.9756 270.641 56.1937 266.331 64.2572L269.859 66.1427ZM286.488 49.1365C293.61 45.0666 301.925 43 311.495 43V39C301.333 39 292.314 41.2001 284.503 45.6635L286.488 49.1365ZM311.495 43C320.918 43 329.012 45.1264 335.852 49.3066L337.938 45.8934C330.378 41.2736 321.539 39 311.495 39V43ZM335.876 49.3206C342.74 53.3883 348.084 59.1043 351.919 66.5188L355.472 64.6812C351.307 56.629 345.451 50.3451 337.915 45.8794L335.876 49.3206ZM351.925 66.5315C355.749 73.7968 357.695 82.3329 357.695 92.2H361.695C361.695 81.8004 359.641 72.6032 355.465 64.6685L351.925 66.5315ZM357.695 92.2V100.8H361.695V92.2H357.695ZM359.695 98.8H287.495V102.8H359.695V98.8ZM285.497 100.878C285.783 108.186 288.534 114.243 293.767 118.895L296.424 115.905C292.057 112.023 289.741 107.014 289.494 100.722L285.497 100.878ZM293.767 118.895C298.963 123.514 305.314 125.8 312.695 125.8V121.8C306.21 121.8 300.828 119.819 296.424 115.905L293.767 118.895ZM312.695 125.8C319.994 125.8 325.787 124.225 329.649 120.672L326.941 117.728C324.137 120.308 319.53 121.8 312.695 121.8V125.8ZM329.649 120.672C333.156 117.445 335.855 113.836 337.709 109.842L334.081 108.158C332.469 111.63 330.101 114.821 326.941 117.728L329.649 120.672ZM334.967 110.771L355.567 121.571L357.424 118.029L336.824 107.229L334.967 110.771ZM354.734 118.852C352.96 122.148 350.325 125.825 346.787 129.886L349.803 132.514C353.466 128.308 356.298 124.385 358.256 120.748L354.734 118.852ZM346.784 129.89C343.525 133.65 339.087 136.968 333.401 139.811L335.19 143.389C341.237 140.365 346.132 136.75 349.807 132.51L346.784 129.89ZM333.434 139.795C327.921 142.426 320.774 143.8 311.895 143.8V147.8C321.15 147.8 328.937 146.374 335.157 143.405L333.434 139.795ZM287.695 84H334.095V80H287.695V84ZM336.087 81.8148C335.508 75.596 332.947 70.4972 328.381 66.6676L325.81 69.7324C329.511 72.8361 331.616 76.9373 332.104 82.1852L336.087 81.8148ZM328.405 66.6886C323.962 62.8378 318.193 61 311.295 61V65C317.465 65 322.229 66.6289 325.785 69.7114L328.405 66.6886ZM311.295 61C304.155 61 298.243 62.8257 293.785 66.6886L296.405 69.7114C299.948 66.641 304.836 65 311.295 65V61ZM293.785 66.6886C289.396 70.4925 286.722 75.5313 285.721 81.6786L289.669 82.3214C290.535 77.002 292.794 72.8408 296.405 69.7114L293.785 66.6886ZM382.125 143H380.125V145H382.125V143ZM382.125 43.8V41.8H380.125V43.8H382.125ZM406.925 43.8H408.925V41.8H406.925V43.8ZM406.925 56.8H404.925V58.8H406.925V56.8ZM410.525 56.8V58.8H411.805L412.341 57.6381L410.525 56.8ZM419.525 47L420.669 48.6408L420.685 48.6293L420.701 48.6175L419.525 47ZM459.725 47.6L458.661 49.2938L458.684 49.3081L458.708 49.3218L459.725 47.6ZM473.325 62.2L471.544 63.1096L471.548 63.1174L471.552 63.1251L473.325 62.2ZM478.125 143V145H480.125V143H478.125ZM452.925 143H450.925V145H452.925V143ZM447.325 69L445.885 70.3883L445.898 70.4014L445.911 70.4142L447.325 69ZM413.725 71.2L415.255 72.4883L415.263 72.4785L415.271 72.4686L413.725 71.2ZM407.325 143V145H409.325V143H407.325ZM384.125 143V43.8H380.125V143H384.125ZM382.125 45.8H406.925V41.8H382.125V45.8ZM404.925 43.8V56.8H408.925V43.8H404.925ZM406.925 58.8H410.525V54.8H406.925V58.8ZM412.341 57.6381C413.744 54.5987 416.448 51.5825 420.669 48.6408L418.381 45.3592C413.802 48.5509 410.506 52.0679 408.709 55.9619L412.341 57.6381ZM420.701 48.6175C424.603 45.7802 430.767 44.2 439.525 44.2V40.2C430.417 40.2 423.247 41.8198 418.349 45.3825L420.701 48.6175ZM439.525 44.2C446.937 44.2 453.29 45.9211 458.661 49.2938L460.789 45.9062C454.693 42.0788 447.58 40.2 439.525 40.2V44.2ZM458.708 49.3218C464.237 52.5891 468.51 57.169 471.544 63.1096L475.106 61.2904C471.74 54.6977 466.947 49.5442 460.742 45.8781L458.708 49.3218ZM471.552 63.1251C474.576 68.9222 476.125 75.793 476.125 83.8H480.125C480.125 75.2736 478.474 67.7445 475.098 61.2749L471.552 63.1251ZM476.125 83.8V143H480.125V83.8H476.125ZM478.125 141H452.925V145H478.125V141ZM454.925 143V85.8H450.925V143H454.925ZM454.925 85.8C454.925 78.025 452.98 71.8265 448.739 67.5858L445.911 70.4142C449.137 73.6402 450.925 78.6416 450.925 85.8H454.925ZM448.765 67.6117C444.681 63.3764 438.891 61.4 431.725 61.4V65.4C438.159 65.4 442.769 67.1569 445.885 70.3883L448.765 67.6117ZM431.725 61.4C423.493 61.4 416.885 64.1959 412.179 69.9314L415.271 72.4686C419.098 67.8041 424.49 65.4 431.725 65.4V61.4ZM412.195 69.9117C407.525 75.4573 405.325 83.1106 405.325 92.6H409.325C409.325 83.6893 411.391 77.076 415.255 72.4883L412.195 69.9117ZM405.325 92.6V143H409.325V92.6H405.325ZM407.325 141H382.125V145H407.325V141ZM565.548 137.4L566.67 135.744L565.548 137.4ZM550.548 113.4L550.048 111.464L548.275 111.922L548.576 113.729L550.548 113.4ZM573.748 107.4L575.71 107.008L575.295 104.934L573.248 105.464L573.748 107.4ZM578.348 118.4L576.787 119.649L576.805 119.673L576.825 119.695L578.348 118.4ZM586.548 124.2L585.846 126.073L585.892 126.09L585.939 126.105L586.548 124.2ZM610.348 122.8L611.511 124.427L611.536 124.41L611.561 124.391L610.348 122.8ZM610.548 108L609.458 109.677L609.489 109.696L609.519 109.715L610.548 108ZM597.748 103.8L598.106 101.832L598.1 101.831L597.748 103.8ZM592.148 102.8L591.771 104.764L591.784 104.767L591.797 104.769L592.148 102.8ZM573.148 97.4L572.376 99.2449L572.395 99.2526L572.413 99.2599L573.148 97.4ZM559.348 87.6L557.816 88.8852L559.348 87.6ZM564.948 49L566.119 50.6214L566.129 50.6143L566.139 50.6071L564.948 49ZM620.948 48.4L619.832 50.0594L620.948 48.4ZM635.348 67.8L635.937 69.7116L637.806 69.1364L637.273 67.2548L635.348 67.8ZM611.948 75L609.991 75.412L610.443 77.5558L612.537 76.9116L611.948 75ZM605.348 64.2L604.239 65.8641L604.255 65.8745L604.27 65.8845L605.348 64.2ZM582.348 63.6L583.416 65.291L583.448 65.2714L583.478 65.2506L582.348 63.6ZM582.548 77.6L581.519 79.315L581.552 79.3343L581.585 79.3524L582.548 77.6ZM593.348 81L593.7 79.0311L593.696 79.0304L593.348 81ZM619.148 87.4L618.442 89.2709L618.466 89.2803L618.491 89.289L619.148 87.4ZM633.548 96.8L632.016 98.0852L632.039 98.112L632.062 98.1379L633.548 96.8ZM627.548 137.4L628.748 139L628.753 138.997L627.548 137.4ZM597.348 143.8C584.698 143.8 574.521 141.062 566.67 135.744L564.427 139.056C573.11 144.938 584.132 147.8 597.348 147.8V143.8ZM566.67 135.744C558.885 130.47 554.17 122.965 552.521 113.071L548.576 113.729C550.393 124.635 555.679 133.13 564.427 139.056L566.67 135.744ZM551.049 115.336L574.249 109.336L573.248 105.464L550.048 111.464L551.049 115.336ZM571.787 107.792C572.76 112.656 574.391 116.654 576.787 119.649L579.91 117.151C578.039 114.812 576.604 111.477 575.71 107.008L571.787 107.792ZM576.825 119.695C579.306 122.615 582.32 124.75 585.846 126.073L587.251 122.327C584.377 121.25 581.924 119.519 579.872 117.105L576.825 119.695ZM585.939 126.105C589.489 127.241 593.296 127.8 597.348 127.8V123.8C593.667 123.8 590.275 123.293 587.158 122.295L585.939 126.105ZM597.348 127.8C603.369 127.8 608.207 126.788 611.511 124.427L609.186 121.173C606.89 122.812 603.062 123.8 597.348 123.8V127.8ZM611.561 124.391C614.774 121.943 616.548 118.789 616.548 115H612.548C612.548 117.345 611.523 119.391 609.136 121.209L611.561 124.391ZM616.548 115C616.548 111.219 614.836 108.24 611.577 106.285L609.519 109.715C611.594 110.96 612.548 112.648 612.548 115H616.548ZM611.638 106.323C608.631 104.369 604.046 102.912 598.106 101.832L597.391 105.768C603.185 106.821 607.132 108.165 609.458 109.677L611.638 106.323ZM598.1 101.831L592.5 100.831L591.797 104.769L597.397 105.769L598.1 101.831ZM592.526 100.836C585.698 99.5228 579.486 97.755 573.884 95.5401L572.413 99.2599C578.277 101.578 584.732 103.41 591.771 104.764L592.526 100.836ZM573.921 95.5551C568.437 93.2595 564.113 90.1688 560.881 86.3148L557.816 88.8852C561.517 93.2979 566.393 96.7405 572.376 99.2449L573.921 95.5551ZM560.881 86.3148C557.776 82.6134 556.148 77.7665 556.148 71.6H552.148C552.148 78.5002 553.987 84.3199 557.816 88.8852L560.881 86.3148ZM556.148 71.6C556.148 62.293 559.504 55.3995 566.119 50.6214L563.777 47.3786C555.993 53.0005 552.148 61.1737 552.148 71.6H556.148ZM566.139 50.6071C572.901 45.5978 581.911 43 593.348 43V39C581.319 39 571.395 41.7355 563.758 47.3929L566.139 50.6071ZM593.348 43C604.118 43 612.903 45.3982 619.832 50.0594L622.065 46.7406C614.327 41.5351 604.712 39 593.348 39V43ZM619.832 50.0594C626.8 54.7466 631.295 60.8306 633.424 68.3452L637.273 67.2548C634.869 58.7694 629.764 51.92 622.065 46.7406L619.832 50.0594ZM634.76 65.8884L611.36 73.0884L612.537 76.9116L635.937 69.7116L634.76 65.8884ZM613.906 74.588C612.764 69.1652 610.339 65.0193 606.427 62.5154L604.27 65.8845C607.025 67.6474 609 70.7015 609.991 75.412L613.906 74.588ZM606.458 62.5359C602.856 60.1348 598.445 59 593.348 59V63C597.852 63 601.441 63.9986 604.239 65.8641L606.458 62.5359ZM593.348 59C588.356 59 584.224 59.8932 581.219 61.9494L583.478 65.2506C585.539 63.8401 588.741 63 593.348 63V59ZM581.28 61.909C578.182 63.8659 576.548 66.7627 576.548 70.4H580.548C580.548 68.1706 581.448 66.5341 583.416 65.291L581.28 61.909ZM576.548 70.4C576.548 74.2776 578.229 77.3409 581.519 79.315L583.577 75.885C581.534 74.6591 580.548 72.9224 580.548 70.4H576.548ZM581.585 79.3524C584.515 80.9643 588.351 82.1489 593.001 82.9696L593.696 79.0304C589.28 78.2511 585.915 77.1691 583.512 75.8476L581.585 79.3524ZM592.997 82.9689L598.597 83.9689L599.3 80.0311L593.7 79.0311L592.997 82.9689ZM598.597 83.9689C605.964 85.2843 612.575 87.0548 618.442 89.2709L619.855 85.5291C613.721 83.2119 606.867 81.3823 599.3 80.0311L598.597 83.9689ZM618.491 89.289C624.353 91.328 628.825 94.28 632.016 98.0852L635.081 95.5148C631.339 91.0534 626.21 87.7387 619.805 85.511L618.491 89.289ZM632.062 98.1379C635.245 101.675 636.948 106.614 636.948 113.2H640.948C640.948 105.919 639.052 99.9254 635.035 95.4621L632.062 98.1379ZM636.948 113.2C636.948 123.039 633.392 130.487 626.344 135.803L628.753 138.997C636.905 132.847 640.948 124.161 640.948 113.2H636.948ZM626.348 135.8C619.333 141.062 609.735 143.8 597.348 143.8V147.8C610.295 147.8 620.831 144.938 628.748 139L626.348 135.8ZM681.631 139.8L680.725 141.583L681.631 139.8ZM663.031 64.4L664.749 65.4246L663.031 64.4ZM681.631 47L682.538 48.7828L681.631 47ZM734.831 47L733.925 48.7828L734.831 47ZM753.431 64.4L751.714 65.4246L753.431 64.4ZM753.431 122.4L751.714 121.375L753.431 122.4ZM734.831 139.8L733.925 138.017L734.831 139.8ZM727.431 116L728.826 117.433L728.836 117.424L728.845 117.414L727.431 116ZM727.431 71L725.998 72.3952L726.017 72.4143L726.036 72.4329L727.431 71ZM689.031 71L690.427 72.4329L690.436 72.4236L690.445 72.4142L689.031 71ZM689.031 116L687.617 117.414L687.626 117.424L687.636 117.433L689.031 116ZM708.231 143.8C698.642 143.8 690.092 141.858 682.538 138.017L680.725 141.583C688.904 145.742 698.087 147.8 708.231 147.8V143.8ZM682.538 138.017C675.009 134.189 669.089 128.652 664.749 121.375L661.314 123.425C666.04 131.348 672.521 137.411 680.725 141.583L682.538 138.017ZM664.749 121.375C660.435 114.143 658.231 105.38 658.231 95H654.231C654.231 105.953 656.561 115.457 661.314 123.425L664.749 121.375ZM658.231 95V91.8H654.231V95H658.231ZM658.231 91.8C658.231 81.4198 660.435 72.6566 664.749 65.4246L661.314 63.3754C656.561 71.3434 654.231 80.8469 654.231 91.8H658.231ZM664.749 65.4246C669.089 58.1478 675.009 52.6112 682.538 48.7828L680.725 45.2172C672.521 49.3888 666.04 55.4521 661.314 63.3754L664.749 65.4246ZM682.538 48.7828C690.092 44.9417 698.642 43 708.231 43V39C698.087 39 688.904 41.0583 680.725 45.2172L682.538 48.7828ZM708.231 43C717.82 43 726.371 44.9417 733.925 48.7828L735.738 45.2172C727.559 41.0583 718.375 39 708.231 39V43ZM733.925 48.7828C741.454 52.6112 747.373 58.1478 751.714 65.4246L755.149 63.3754C750.423 55.4521 743.942 49.3888 735.738 45.2172L733.925 48.7828ZM751.714 65.4246C756.027 72.6566 758.231 81.4198 758.231 91.8H762.231C762.231 80.8469 759.902 71.3434 755.149 63.3754L751.714 65.4246ZM758.231 91.8V95H762.231V91.8H758.231ZM758.231 95C758.231 105.38 756.027 114.143 751.714 121.375L755.149 123.425C759.902 115.457 762.231 105.953 762.231 95H758.231ZM751.714 121.375C747.373 128.652 741.454 134.189 733.925 138.017L735.738 141.583C743.942 137.411 750.423 131.348 755.149 123.425L751.714 121.375ZM733.925 138.017C726.371 141.858 717.82 143.8 708.231 143.8V147.8C718.375 147.8 727.559 145.742 735.738 141.583L733.925 138.017ZM708.231 125.4C716.432 125.4 723.35 122.766 728.826 117.433L726.036 114.567C721.379 119.101 715.497 121.4 708.231 121.4V125.4ZM728.845 117.414C734.391 111.869 737.031 104.097 737.031 94.4H733.031C733.031 103.37 730.605 109.998 726.017 114.586L728.845 117.414ZM737.031 94.4V92.4H733.031V94.4H737.031ZM737.031 92.4C737.031 82.7067 734.392 74.9861 728.826 69.5671L726.036 72.4329C730.604 76.8806 733.031 83.4266 733.031 92.4H737.031ZM728.864 69.6048C723.51 64.1061 716.571 61.4 708.231 61.4V65.4C715.625 65.4 721.486 67.7606 725.998 72.3952L728.864 69.6048ZM708.231 61.4C700.014 61.4 693.09 64.1124 687.617 69.5858L690.445 72.4142C695.105 67.7542 700.982 65.4 708.231 65.4V61.4ZM687.636 69.5671C682.07 74.9861 679.431 82.7067 679.431 92.4H683.431C683.431 83.4266 685.859 76.8806 690.427 72.4329L687.636 69.5671ZM679.431 92.4V94.4H683.431V92.4H679.431ZM679.431 94.4C679.431 104.097 682.072 111.869 687.617 117.414L690.445 114.586C685.857 109.998 683.431 103.37 683.431 94.4H679.431ZM687.636 117.433C693.113 122.766 700.03 125.4 708.231 125.4V121.4C700.966 121.4 695.083 119.101 690.427 114.567L687.636 117.433ZM800.892 139.4L799.829 141.094L799.852 141.108L799.875 141.122L800.892 139.4ZM787.492 124.6L785.711 125.51L787.492 124.6ZM782.692 43.8V41.8H780.692V43.8H782.692ZM807.892 43.8H809.892V41.8H807.892V43.8ZM813.292 117.8L811.852 119.188L811.865 119.201L811.878 119.214L813.292 117.8ZM847.092 115.8L848.622 117.088L848.63 117.079L848.638 117.069L847.092 115.8ZM853.492 43.8V41.8H851.492V43.8H853.492ZM878.692 43.8H880.692V41.8H878.692V43.8ZM878.692 143V145H880.692V143H878.692ZM853.892 143H851.892V145H853.892V143ZM853.892 130H855.892V128H853.892V130ZM850.292 130V128H849.034L848.489 129.135L850.292 130ZM841.292 139.8L842.469 141.417H842.469L841.292 139.8ZM821.292 142.6C813.868 142.6 807.428 140.939 801.91 137.678L799.875 141.122C806.089 144.794 813.25 146.6 821.292 146.6V142.6ZM801.956 137.706C796.54 134.306 792.316 129.649 789.273 123.69L785.711 125.51C789.068 132.084 793.777 137.294 799.829 141.094L801.956 137.706ZM789.273 123.69C786.238 117.746 784.692 110.867 784.692 103H780.692C780.692 111.4 782.346 118.92 785.711 125.51L789.273 123.69ZM784.692 103V43.8H780.692V103H784.692ZM782.692 45.8H807.892V41.8H782.692V45.8ZM805.892 43.8V101H809.892V43.8H805.892ZM805.892 101C805.892 108.757 807.761 114.946 811.852 119.188L814.732 116.412C811.623 113.188 809.892 108.176 809.892 101H805.892ZM811.878 119.214C816.086 123.422 821.921 125.4 829.092 125.4V121.4C822.663 121.4 817.965 119.644 814.706 116.386L811.878 119.214ZM829.092 125.4C837.306 125.4 843.91 122.684 848.622 117.088L845.562 114.512C841.741 119.049 836.345 121.4 829.092 121.4V125.4ZM848.638 117.069C853.29 111.399 855.492 103.693 855.492 94.2H851.492C851.492 103.107 849.427 109.801 845.546 114.531L848.638 117.069ZM855.492 94.2V43.8H851.492V94.2H855.492ZM853.492 45.8H878.692V41.8H853.492V45.8ZM876.692 43.8V143H880.692V43.8H876.692ZM878.692 141H853.892V145H878.692V141ZM855.892 143V130H851.892V143H855.892ZM853.892 128H850.292V132H853.892V128ZM848.489 129.135C847.084 132.061 844.365 135.092 840.116 138.183L842.469 141.417C847.019 138.108 850.3 134.605 852.095 130.865L848.489 129.135ZM840.116 138.183C836.215 141.02 830.051 142.6 821.292 142.6V146.6C830.401 146.6 837.57 144.98 842.469 141.417L840.116 138.183ZM906.734 143H904.734V145H906.734V143ZM906.734 43.8V41.8H904.734V43.8H906.734ZM931.534 43.8H933.534V41.8H931.534V43.8ZM931.534 55H929.534V57H931.534V55ZM935.134 55V57H936.531L937.012 55.6885L935.134 55ZM942.334 46.2L941.386 44.439L941.372 44.4469L941.357 44.455L942.334 46.2ZM966.334 43.4H968.334V41.4H966.334V43.4ZM966.334 65.8V67.8H968.334V65.8H966.334ZM938.134 71L939.39 72.5568L939.405 72.5447L939.42 72.5324L938.134 71ZM931.934 143V145H933.934V143H931.934ZM908.734 143V43.8H904.734V143H908.734ZM906.734 45.8H931.534V41.8H906.734V45.8ZM929.534 43.8V55H933.534V43.8H929.534ZM931.534 57H935.134V53H931.534V57ZM937.012 55.6885C938.335 52.0816 940.444 49.5511 943.312 47.945L941.357 44.455C937.559 46.5822 934.867 49.9183 933.257 54.3115L937.012 55.6885ZM943.283 47.9609C946.416 46.2735 950.082 45.4 954.334 45.4V41.4C949.521 41.4 945.186 42.3932 941.386 44.439L943.283 47.9609ZM954.334 45.4H966.334V41.4H954.334V45.4ZM964.334 43.4V65.8H968.334V43.4H964.334ZM966.334 63.8H953.934V67.8H966.334V63.8ZM953.934 63.8C947.156 63.8 941.407 65.6448 936.849 69.4676L939.42 72.5324C943.128 69.4219 947.913 67.8 953.934 67.8V63.8ZM936.879 69.4432C932.13 73.2729 929.934 79.1429 929.934 86.6H933.934C933.934 79.9238 935.872 75.3937 939.39 72.5568L936.879 69.4432ZM929.934 86.6V143H933.934V86.6H929.934ZM931.934 141H906.734V145H931.934V141ZM1002.92 139.8L1002 141.576L1002.01 141.583L1002.92 139.8ZM984.516 64.4L986.233 65.4246L984.516 64.4ZM1002.92 47L1002.01 45.2172L1002 45.2236L1002.92 47ZM1053.52 46L1052.64 47.7958L1053.52 46ZM1069.92 59.8L1068.28 60.9519L1068.3 60.9732L1068.31 60.994L1069.92 59.8ZM1078.32 79.4L1078.73 81.3561L1080.63 80.9516L1080.28 79.0422L1078.32 79.4ZM1053.92 84.6L1051.93 84.8643L1052.22 87.0065L1054.33 86.5561L1053.92 84.6ZM1042.32 66.2L1041.34 67.945L1041.35 67.9531L1041.37 67.9609L1042.32 66.2ZM1015.92 66.8L1016.86 68.5647L1016.87 68.5592L1016.88 68.5536L1015.92 66.8ZM1006.32 76.6L1004.56 75.6423L1004.55 75.652L1004.55 75.6617L1006.32 76.6ZM1006.32 110.4L1004.54 111.316L1004.55 111.349L1004.57 111.381L1006.32 110.4ZM1015.92 120.2L1014.93 121.94L1014.96 121.959L1015 121.977L1015.92 120.2ZM1046.92 117.6L1048.33 119.014L1046.92 117.6ZM1054.52 102L1054.98 100.054L1052.89 99.559L1052.54 101.671L1054.52 102ZM1078.92 107.8L1080.86 108.276L1081.34 106.32L1079.38 105.854L1078.92 107.8ZM1069.92 127.2L1068.3 126.024L1068.29 126.03L1069.92 127.2ZM1029.12 143.8C1019.8 143.8 1011.38 141.862 1003.82 138.017L1002.01 141.583C1010.18 145.738 1019.23 147.8 1029.12 147.8V143.8ZM1003.83 138.024C996.438 134.198 990.579 128.661 986.233 121.375L982.798 123.425C987.519 131.339 993.927 137.402 1002 141.576L1003.83 138.024ZM986.233 121.375C981.922 114.147 979.716 105.319 979.716 94.8H975.716C975.716 105.881 978.043 115.453 982.798 123.425L986.233 121.375ZM979.716 94.8V92H975.716V94.8H979.716ZM979.716 92C979.716 81.4813 981.922 72.653 986.233 65.4246L982.798 63.3754C978.043 71.347 975.716 80.9187 975.716 92H979.716ZM986.233 65.4246C990.579 58.1392 996.438 52.6022 1003.83 48.7764L1002 45.2236C993.927 49.3978 987.519 55.4608 982.798 63.3754L986.233 65.4246ZM1003.82 48.7828C1011.38 44.9378 1019.8 43 1029.12 43V39C1019.23 39 1010.18 41.0622 1002.01 45.2172L1003.82 48.7828ZM1029.12 43C1038.35 43 1046.17 44.6261 1052.64 47.7958L1054.4 44.2042C1047.26 40.7072 1038.81 39 1029.12 39V43ZM1052.64 47.7958C1059.15 50.9898 1064.35 55.3751 1068.28 60.9519L1071.55 58.6481C1067.21 52.4915 1061.48 47.6769 1054.4 44.2042L1052.64 47.7958ZM1068.31 60.994C1072.39 66.4696 1075.07 72.714 1076.35 79.7578L1080.28 79.0422C1078.9 71.4193 1075.98 64.5971 1071.52 58.606L1068.31 60.994ZM1077.9 77.4439L1053.5 82.6439L1054.33 86.5561L1078.73 81.3561L1077.9 77.4439ZM1055.9 84.3357C1055.33 80.097 1054.05 76.2404 1052.04 72.7923L1048.59 74.8077C1050.31 77.7596 1051.43 81.103 1051.93 84.8643L1055.9 84.3357ZM1052.04 72.7923C1049.98 69.2541 1047.03 66.4688 1043.26 64.4391L1041.37 67.9609C1044.53 69.6645 1046.92 71.9459 1048.59 74.8077L1052.04 72.7923ZM1043.29 64.455C1039.58 62.3753 1035.02 61.4 1029.72 61.4V65.4C1034.55 65.4 1038.39 66.2913 1041.34 67.945L1043.29 64.455ZM1029.72 61.4C1024.34 61.4 1019.4 62.6061 1014.95 65.0464L1016.88 68.5536C1020.69 66.4606 1024.96 65.4 1029.72 65.4V61.4ZM1014.97 65.0353C1010.59 67.3715 1007.13 70.9371 1004.56 75.6423L1008.07 77.5577C1010.3 73.4629 1013.24 70.4952 1016.86 68.5647L1014.97 65.0353ZM1004.55 75.6617C1002.09 80.2904 1000.92 85.9004 1000.92 92.4H1004.92C1004.92 86.3663 1006.01 81.4429 1008.08 77.5383L1004.55 75.6617ZM1000.92 92.4V94.4H1004.92V92.4H1000.92ZM1000.92 94.4C1000.92 100.903 1002.09 106.567 1004.54 111.316L1008.09 109.484C1006.01 105.433 1004.92 100.431 1004.92 94.4H1000.92ZM1004.57 111.381C1007.14 115.943 1010.59 119.482 1014.93 121.94L1016.9 118.46C1013.24 116.385 1010.29 113.39 1008.06 109.419L1004.57 111.381ZM1015 121.977C1019.44 124.27 1024.36 125.4 1029.72 125.4V121.4C1024.94 121.4 1020.66 120.397 1016.83 118.423L1015 121.977ZM1029.72 125.4C1037.64 125.4 1043.96 123.382 1048.33 119.014L1045.5 116.186C1042.14 119.551 1037 121.4 1029.72 121.4V125.4ZM1048.33 119.014C1052.67 114.678 1055.36 109.077 1056.49 102.329L1052.54 101.671C1051.53 107.723 1049.16 112.522 1045.5 116.186L1048.33 119.014ZM1054.05 103.946L1078.45 109.746L1079.38 105.854L1054.98 100.054L1054.05 103.946ZM1076.97 107.324C1075.3 114.139 1072.41 120.368 1068.3 126.024L1071.53 128.376C1075.95 122.299 1079.06 115.594 1080.86 108.276L1076.97 107.324ZM1068.29 126.03C1064.37 131.478 1059.16 135.805 1052.64 139.004L1054.4 142.596C1061.47 139.129 1067.2 134.388 1071.54 128.37L1068.29 126.03ZM1052.64 139.004C1046.17 142.174 1038.35 143.8 1029.12 143.8V147.8C1038.81 147.8 1047.26 146.093 1054.4 142.596L1052.64 139.004ZM1118.7 139.6L1117.71 141.336L1117.73 141.347L1117.75 141.357L1118.7 139.6ZM1101.1 121.8L1099.34 122.743L1099.35 122.761L1099.36 122.779L1101.1 121.8ZM1101.1 65.2L1102.86 66.1555L1102.86 66.1492L1102.87 66.1427L1101.1 65.2ZM1118.5 47.4L1119.47 49.1498L1119.48 49.1432L1119.5 49.1365L1118.5 47.4ZM1169.9 47.6L1168.86 49.3066L1168.87 49.3136L1168.88 49.3206L1169.9 47.6ZM1186.7 65.6L1184.93 66.5188L1184.93 66.5252L1184.93 66.5315L1186.7 65.6ZM1192.7 100.8V102.8H1194.7V100.8H1192.7ZM1120.5 100.8V98.8H1118.42L1118.5 100.878L1120.5 100.8ZM1161.3 119.2L1159.95 117.728L1161.3 119.2ZM1168.9 109L1169.83 107.229L1167.97 106.254L1167.09 108.158L1168.9 109ZM1189.5 119.8L1191.26 120.748L1192.22 118.968L1190.43 118.029L1189.5 119.8ZM1181.3 131.2L1179.79 129.886L1179.79 129.89L1181.3 131.2ZM1167.3 141.6L1168.16 143.405L1168.18 143.397L1168.2 143.389L1167.3 141.6ZM1120.7 82L1118.73 81.6786L1118.35 84H1120.7V82ZM1167.1 82V84H1169.3L1169.09 81.8148L1167.1 82ZM1160.1 68.2L1158.79 69.7114L1158.81 69.722L1158.82 69.7324L1160.1 68.2ZM1144.9 143.8C1135.32 143.8 1126.93 141.796 1119.66 137.843L1117.75 141.357C1125.68 145.671 1134.75 147.8 1144.9 147.8V143.8ZM1119.7 137.864C1112.55 133.779 1106.94 128.11 1102.85 120.821L1099.36 122.779C1103.8 130.69 1109.93 136.888 1117.71 141.336L1119.7 137.864ZM1102.87 120.857C1098.92 113.463 1096.9 104.732 1096.9 94.6H1092.9C1092.9 105.268 1095.02 114.67 1099.34 122.743L1102.87 120.857ZM1096.9 94.6V92.2H1092.9V94.6H1096.9ZM1096.9 92.2C1096.9 82.0666 1098.92 73.4085 1102.86 66.1555L1099.35 64.2445C1095.02 72.1915 1092.9 81.5334 1092.9 92.2H1096.9ZM1102.87 66.1427C1106.82 58.7396 1112.35 53.091 1119.47 49.1498L1117.53 45.6502C1109.72 49.9756 1103.65 56.1937 1099.34 64.2572L1102.87 66.1427ZM1119.5 49.1365C1126.62 45.0666 1134.93 43 1144.5 43V39C1134.34 39 1125.32 41.2001 1117.51 45.6635L1119.5 49.1365ZM1144.5 43C1153.93 43 1162.02 45.1264 1168.86 49.3066L1170.95 45.8934C1163.39 41.2736 1154.55 39 1144.5 39V43ZM1168.88 49.3206C1175.75 53.3883 1181.09 59.1043 1184.93 66.5188L1188.48 64.6812C1184.31 56.629 1178.46 50.3451 1170.92 45.8794L1168.88 49.3206ZM1184.93 66.5315C1188.76 73.7968 1190.7 82.3329 1190.7 92.2H1194.7C1194.7 81.8004 1192.65 72.6032 1188.47 64.6685L1184.93 66.5315ZM1190.7 92.2V100.8H1194.7V92.2H1190.7ZM1192.7 98.8H1120.5V102.8H1192.7V98.8ZM1118.5 100.878C1118.79 108.186 1121.54 114.243 1126.77 118.895L1129.43 115.905C1125.06 112.023 1122.75 107.014 1122.5 100.722L1118.5 100.878ZM1126.77 118.895C1131.97 123.514 1138.32 125.8 1145.7 125.8V121.8C1139.22 121.8 1133.84 119.819 1129.43 115.905L1126.77 118.895ZM1145.7 125.8C1153 125.8 1158.8 124.225 1162.66 120.672L1159.95 117.728C1157.14 120.308 1152.54 121.8 1145.7 121.8V125.8ZM1162.66 120.672C1166.16 117.445 1168.86 113.836 1170.72 109.842L1167.09 108.158C1165.48 111.63 1163.11 114.821 1159.95 117.728L1162.66 120.672ZM1167.97 110.771L1188.57 121.571L1190.43 118.029L1169.83 107.229L1167.97 110.771ZM1187.74 118.852C1185.97 122.148 1183.33 125.825 1179.79 129.886L1182.81 132.514C1186.47 128.308 1189.31 124.385 1191.26 120.748L1187.74 118.852ZM1179.79 129.89C1176.53 133.65 1172.09 136.968 1166.41 139.811L1168.2 143.389C1174.24 140.365 1179.14 136.75 1182.81 132.51L1179.79 129.89ZM1166.44 139.795C1160.93 142.426 1153.78 143.8 1144.9 143.8V147.8C1154.16 147.8 1161.94 146.374 1168.16 143.405L1166.44 139.795ZM1120.7 84H1167.1V80H1120.7V84ZM1169.09 81.8148C1168.52 75.596 1165.95 70.4972 1161.39 66.6676L1158.82 69.7324C1162.52 72.8361 1164.62 76.9373 1165.11 82.1852L1169.09 81.8148ZM1161.41 66.6886C1156.97 62.8378 1151.2 61 1144.3 61V65C1150.47 65 1155.24 66.6289 1158.79 69.7114L1161.41 66.6886ZM1144.3 61C1137.16 61 1131.25 62.8257 1126.79 66.6886L1129.41 69.7114C1132.96 66.641 1137.84 65 1144.3 65V61ZM1126.79 66.6886C1122.4 70.4925 1119.73 75.5313 1118.73 81.6786L1122.68 82.3214C1123.54 77.002 1125.8 72.8408 1129.41 69.7114L1126.79 66.6886Z" fill="#455378"/>
</svg>
