<svg width="180" height="64" viewBox="0 0 180 64" fill="none" xmlns="http://www.w3.org/2000/svg">
<path d="M54.3555 9.376C48.3387 3.328 40.346 0 31.8434 0C14.2836 0 0 14.3552 0 32C0 49.6448 14.2836 64 31.8434 64C40.346 64 48.3451 60.672 54.3555 54.624C60.3724 48.576 63.6804 40.544 63.6804 32C63.6804 23.456 60.3724 15.4176 54.3555 9.376ZM31.8434 61.7856C15.501 61.7856 2.20533 48.4224 2.20533 32C2.20533 15.5776 15.501 2.2144 31.8434 2.2144C48.1857 2.2144 61.4814 15.5776 61.4814 32C61.4814 48.4224 48.1857 61.7856 31.8434 61.7856Z" fill="#B9C1D9"/>
<path d="M42.2961 32.7552C40.2565 30.9248 37.5859 29.7024 34.9981 28.5184L34.979 28.512C30.4154 26.4192 26.47 24.608 26.7505 20.3264C26.8716 18.6944 28.0507 17.7088 29.0195 17.1776C30.1094 16.576 31.5563 16.2176 32.8948 16.2176C33.0541 16.2176 33.2135 16.224 33.3664 16.2304C37.2608 16.4928 40.333 18.1504 43.335 21.5936L43.5135 21.8048L43.7238 21.6256L44.8966 20.6016L45.1069 20.416L44.9221 20.2048C41.5758 16.352 37.9428 14.4128 33.5003 14.112C33.3091 14.0928 33.1051 14.0864 32.882 14.0864C32.7482 14.0864 32.6016 14.0864 32.4486 14.0928H32.2574C29.3446 14.0928 26.1513 15.0528 23.7229 16.6656C20.8228 18.592 19.1975 21.2416 19.1529 24.128C19.0382 31.1488 24.7555 33.5104 29.7971 35.6032L29.8099 35.6096L29.8609 35.6288C34.3225 37.4848 38.1723 39.0848 38.0894 43.3728C38.0512 46.2016 34.0229 47.7632 31.2567 47.7632H31.142H30.8679V47.7696C26.7441 47.648 23.06 45.8624 19.9178 42.4768L19.7266 42.272L19.5226 42.4576L18.3817 43.52L18.1777 43.712L18.3689 43.9168C21.9383 47.776 26.3425 49.8496 31.1101 49.9072H31.3268C34.4054 49.9072 37.7516 49.0752 40.2756 47.6736C43.437 45.9392 45.279 43.4112 45.4702 40.5568C45.6869 37.4208 44.648 34.8672 42.2961 32.7552ZM27.4962 26.6496C29.3127 28.2112 31.773 29.3312 34.1504 30.4128L34.195 30.432C36.7127 31.5968 39.0965 32.6976 40.8237 34.2272C42.7359 35.9168 43.5453 37.8752 43.3733 40.3904C43.2139 42.88 41.3719 44.544 39.6956 45.5488C40.0206 44.8832 40.1991 44.16 40.2182 43.392C40.2565 40.8064 39.2685 38.7392 37.1907 37.0624C35.3742 35.5968 32.9649 34.6048 30.6321 33.6384C25.7816 31.6352 21.1989 29.7408 21.2818 24.1472C21.3073 21.9968 22.5948 19.9616 24.9084 18.4192C24.9849 18.368 25.0614 18.3168 25.1443 18.2656C24.8702 18.8672 24.7172 19.4944 24.679 20.1536C24.4941 22.7456 25.4183 24.8704 27.4962 26.6496Z" fill="#B9C1D9"/>
<path d="M83.6302 28.4991C82.4702 28.4991 81.3293 28.3071 80.2139 27.9423C79.1048 27.5775 78.1487 27.0335 77.3584 26.3487L78.6778 24.1151C79.5191 24.7231 80.3477 25.1711 81.1572 25.4847C81.9539 25.7855 82.7634 25.9455 83.5537 25.9455C84.2548 25.9455 84.8093 25.8175 85.2236 25.5487C85.6379 25.2799 85.8291 24.9087 85.8291 24.3967C85.8291 23.9039 85.5933 23.5327 85.1153 23.3087C84.6373 23.0847 83.8596 22.8159 82.7952 22.5087C81.8902 22.2527 81.1253 22.0159 80.4943 21.7919C79.8569 21.5679 79.3534 21.2991 78.9518 21.0111C78.5694 20.7231 78.2826 20.3903 78.1105 20.0063C77.9384 19.6223 77.8428 19.1743 77.8428 18.6367C77.8428 17.9327 77.983 17.2991 78.2571 16.7231C78.5248 16.1663 78.9072 15.6671 79.398 15.2703C79.8888 14.8735 80.4624 14.5663 81.1317 14.3615C81.8009 14.1567 82.5148 14.0415 83.2924 14.0415C84.3249 14.0415 85.3065 14.1823 86.2116 14.4895C87.1166 14.7903 87.958 15.2703 88.7037 15.9551L87.276 18.1119C86.5749 17.5871 85.8929 17.1839 85.23 16.9471C84.5608 16.6911 83.9106 16.5823 83.2605 16.5823C82.655 16.5823 82.1642 16.7103 81.7499 16.9471C81.3356 17.2031 81.1444 17.5999 81.1444 18.1439C81.1444 18.3999 81.1954 18.5919 81.2846 18.7519C81.3803 18.9119 81.5396 19.0527 81.7436 19.1807C81.9475 19.3087 82.2343 19.4175 82.5721 19.5327C82.9227 19.6415 83.3497 19.7695 83.8596 19.8847C84.8093 20.1407 85.6252 20.3775 86.3072 20.6335C86.9892 20.8895 87.5437 21.1583 87.9771 21.4783C88.4042 21.7983 88.7228 22.1631 88.9268 22.5791C89.1308 22.9951 89.2264 23.4879 89.2264 24.0767C89.2264 25.4335 88.7165 26.5151 87.7158 27.3023C86.7215 28.1151 85.3575 28.4991 83.6302 28.4991Z" fill="#B9C1D9"/>
<path d="M106.333 22.2144H95.2684C95.4596 23.2512 95.9695 24.0832 96.7918 24.704C97.6204 25.312 98.6338 25.6128 99.8384 25.6128C101.394 25.6128 102.662 25.1008 103.663 24.064L105.428 26.1056C104.791 26.8736 104.001 27.4432 103.032 27.8272C102.063 28.2112 100.967 28.416 99.7619 28.416C98.2067 28.416 96.8428 28.1152 95.6636 27.488C94.4908 26.8672 93.5666 26.0032 92.9293 24.9024C92.2791 23.8016 91.9604 22.5408 91.9604 21.152C91.9604 19.7632 92.2791 18.5344 92.8974 17.4208C93.5156 16.32 94.3889 15.456 95.5043 14.8352C96.6133 14.2144 97.8689 13.9072 99.252 13.9072C100.635 13.9072 101.859 14.208 102.936 14.816C104.013 15.424 104.855 16.2816 105.479 17.3824C106.085 18.4832 106.384 19.776 106.384 21.2096C106.378 21.4656 106.365 21.7792 106.333 22.2144ZM96.5687 17.504C95.8357 18.1248 95.3959 18.9696 95.2366 20.0064H103.242C103.102 18.9824 102.668 18.1568 101.942 17.5168C101.209 16.8768 100.323 16.5568 99.2393 16.5568C98.1876 16.5504 97.2953 16.864 96.5687 17.504Z" fill="#B9C1D9"/>
<path d="M113.128 27.4944C111.968 26.8736 111.063 26.0096 110.413 24.9088C109.763 23.808 109.431 22.5472 109.431 21.1584C109.431 19.7568 109.763 18.5088 110.413 17.408C111.063 16.3072 111.968 15.4432 113.128 14.8416C114.288 14.2208 115.607 13.9136 117.08 13.9136C118.476 13.9136 119.687 14.2016 120.732 14.7584C121.777 15.3344 122.574 16.1472 123.097 17.1968L120.553 18.6816C120.139 18.0288 119.648 17.5296 119.03 17.216C118.425 16.8832 117.762 16.7232 117.029 16.7232C115.792 16.7232 114.772 17.12 113.963 17.9392C113.153 18.7392 112.739 19.8208 112.739 21.1648C112.739 22.5024 113.134 23.5904 113.944 24.3904C114.74 25.2032 115.767 25.6064 117.022 25.6064C117.736 25.6064 118.405 25.4464 119.024 25.1136C119.629 24.7808 120.133 24.3008 120.547 23.648L123.09 25.1328C122.548 26.2016 121.739 27.0144 120.694 27.5904C119.648 28.1664 118.437 28.4544 117.061 28.4544C115.588 28.4224 114.288 28.1152 113.128 27.4944Z" fill="#B9C1D9"/>
<path d="M135.136 13.9009V17.0625C134.85 17.0177 134.595 16.9857 134.372 16.9857C133.084 16.9857 132.083 17.3697 131.357 18.1185C130.624 18.8673 130.28 19.9553 130.28 21.3761V28.2561H126.978V14.0609H130.12V16.1345C131.07 14.6497 132.74 13.9009 135.136 13.9009Z" fill="#B9C1D9"/>
<path d="M151.843 22.2144H140.778C140.969 23.2512 141.479 24.0832 142.301 24.704C143.13 25.312 144.143 25.6128 145.348 25.6128C146.903 25.6128 148.171 25.1008 149.172 24.064L150.938 26.1056C150.3 26.8736 149.51 27.4432 148.541 27.8272C147.572 28.2112 146.476 28.416 145.271 28.416C143.716 28.416 142.352 28.1152 141.173 27.488C140 26.8672 139.076 26.0032 138.439 24.9024C137.788 23.8016 137.47 22.5408 137.47 21.152C137.47 19.7632 137.788 18.5344 138.407 17.4208C139.025 16.32 139.898 15.456 141.014 14.8352C142.123 14.2144 143.378 13.9072 144.761 13.9072C146.144 13.9072 147.368 14.208 148.445 14.816C149.523 15.424 150.364 16.2816 150.988 17.3824C151.594 18.4832 151.894 19.776 151.894 21.2096C151.906 21.4656 151.887 21.7792 151.843 22.2144ZM142.091 17.504C141.358 18.1248 140.918 18.9696 140.759 20.0064H148.764C148.624 18.9824 148.19 18.1568 147.464 17.5168C146.731 16.8768 145.845 16.5568 144.761 16.5568C143.71 16.5504 142.824 16.864 142.091 17.504Z" fill="#B9C1D9"/>
<path d="M164.59 27.4624C164.207 27.7824 163.729 28.0192 163.175 28.1792C162.62 28.3392 162.034 28.416 161.409 28.416C159.854 28.416 158.662 28 157.821 27.1872C156.98 26.3744 156.552 25.1904 156.552 23.6288V16.8H154.232V14.1696H156.552V10.9312H159.854V14.1696H163.634V16.8192H159.854V23.5712C159.854 24.256 160.026 24.7872 160.364 25.152C160.695 25.5168 161.193 25.696 161.824 25.696C162.569 25.696 163.175 25.504 163.666 25.1072L164.59 27.4624Z" fill="#B9C1D9"/>
<path d="M89.0094 37.4012C90.042 38.4252 90.5519 39.9036 90.5519 41.8556V49.9644H88.678V42.0476C88.678 40.5948 88.3147 39.494 87.6008 38.726C86.8678 37.958 85.8544 37.574 84.5032 37.574C83.0117 37.574 81.8198 38.022 80.9466 38.9116C80.0734 39.8076 79.6464 41.0364 79.6464 42.6108V49.9324H77.7725V35.9804H79.5699V38.5468C80.0798 37.702 80.7936 37.03 81.6987 36.5692C82.6038 36.1084 83.6491 35.8652 84.8601 35.8652C86.5938 35.8716 87.9769 36.3836 89.0094 37.4012Z" fill="#B9C1D9"/>
<path d="M107.602 43.5456H95.9758C96.0842 44.9984 96.6451 46.1632 97.6458 47.0592C98.6464 47.9552 99.9148 48.3968 101.457 48.3968C102.318 48.3968 103.108 48.2368 103.841 47.936C104.555 47.6352 105.192 47.168 105.715 46.5664L106.779 47.7952C106.161 48.544 105.396 49.1008 104.459 49.504C103.542 49.888 102.522 50.0928 101.413 50.0928C99.9849 50.0928 98.7293 49.792 97.6203 49.184C96.524 48.576 95.6699 47.7312 95.0453 46.6496C94.427 45.5616 94.1274 44.352 94.1274 42.9824C94.1274 41.6256 94.427 40.3968 95.0198 39.3152C95.6062 38.2272 96.4156 37.4016 97.4482 36.7936C98.4807 36.1856 99.6408 35.8848 100.928 35.8848C102.216 35.8848 103.376 36.1856 104.389 36.7936C105.403 37.4016 106.212 38.2272 106.786 39.296C107.372 40.3648 107.659 41.5936 107.659 42.9632L107.602 43.5456ZM97.5183 38.7904C96.6132 39.6544 96.0906 40.768 95.9758 42.1568H105.836C105.709 40.768 105.199 39.6544 104.294 38.7904C103.389 37.9264 102.26 37.4976 100.896 37.4976C99.5515 37.4976 98.4234 37.9264 97.5183 38.7904Z" fill="#B9C1D9"/>
<path d="M118.163 49.1004C117.812 49.4204 117.366 49.6572 116.863 49.8364C116.34 50.0092 115.798 50.0924 115.244 50.0924C113.943 50.0924 112.943 49.7404 112.229 49.0236C111.528 48.3196 111.164 47.3148 111.164 46.022V37.5804H108.685V35.9868H111.164V32.9404H113.038V35.9868H117.264V37.5804H113.038V45.926C113.038 46.758 113.242 47.3916 113.657 47.8268C114.071 48.2556 114.67 48.4796 115.435 48.4796C115.817 48.4796 116.2 48.4156 116.563 48.2876C116.926 48.1596 117.232 47.9868 117.5 47.7628L118.163 49.1004Z" fill="#B9C1D9"/>
<path d="M137.692 36.0957H139.93L134.072 49.9645H132.154L129.375 43.1997L126.628 49.9645H124.709L118.845 36.0957H121.07L125.831 47.6477L128.151 41.8877L125.767 36.1277H127.686L129.387 40.5629L131.089 36.1277H133.008L130.643 41.8877L132.963 47.6477L137.692 36.0957Z" fill="#B9C1D9"/>
<path d="M147.457 50.1441C146.456 50.1441 145.538 49.9521 144.71 49.5681C143.881 49.1841 143.167 48.6721 142.549 48.0193C141.943 47.3665 141.472 46.5985 141.134 45.7345C140.802 44.8705 140.624 43.9617 140.624 43.0081C140.624 42.0353 140.796 41.1073 141.134 40.2497C141.484 39.3857 141.963 38.6241 142.562 37.9649C143.167 37.3121 143.881 36.7809 144.722 36.4033C145.551 36.0193 146.456 35.8145 147.438 35.8145C148.419 35.8145 149.343 36.0065 150.166 36.4033C151.007 36.7873 151.721 37.3121 152.326 37.9649C152.932 38.6177 153.403 39.3857 153.754 40.2497C154.105 41.1137 154.264 42.0353 154.264 43.0081C154.264 43.9681 154.092 44.8769 153.754 45.7345C153.423 46.5985 152.945 47.3601 152.339 48.0193C151.734 48.6721 151.007 49.2033 150.178 49.5681C149.382 49.9521 148.457 50.1441 147.457 50.1441ZM142.453 43.0273C142.453 43.8081 142.581 44.5249 142.848 45.1969C143.116 45.8689 143.467 46.4385 143.913 46.9505C144.359 47.4625 144.894 47.8465 145.5 48.1345C146.105 48.4225 146.756 48.5633 147.438 48.5633C148.12 48.5633 148.77 48.4225 149.375 48.1345C149.981 47.8465 150.516 47.4497 150.981 46.9377C151.44 46.4257 151.81 45.8497 152.059 45.1649C152.326 44.4929 152.454 43.7633 152.454 42.9953C152.454 42.2273 152.326 41.5105 152.059 40.8257C151.791 40.1409 151.44 39.5521 150.981 39.0401C150.522 38.5281 150 38.1313 149.375 37.8433C148.77 37.5553 148.12 37.4145 147.438 37.4145C146.756 37.4145 146.105 37.5553 145.519 37.8433C144.914 38.1313 144.391 38.5473 143.932 39.0529C143.473 39.5649 143.103 40.1729 142.855 40.8385C142.6 41.5297 142.453 42.2465 142.453 43.0273Z" fill="#B9C1D9"/>
<path d="M164.182 37.7217C162.958 37.7537 161.913 38.0865 161.008 38.7265C160.103 39.3665 159.465 40.2433 159.102 41.3569V49.9585H157.305V36.1281H159.006V39.4497C159.516 38.3809 160.198 37.5489 161.072 36.9601C161.932 36.3521 162.863 36.0513 163.851 36.0513C163.991 36.0513 164.105 36.0705 164.201 36.0833V37.7281H164.182V37.7217Z" fill="#B9C1D9"/>
<path d="M177.656 49.9582L172.576 42.8735L169.625 45.6318V49.9582H167.827V30.5854H169.625V43.7502L177.356 36.1598H179.389L173.768 41.811L179.612 49.9646H177.656V49.9582Z" fill="#B9C1D9"/>
</svg>
