<svg width="48" height="48" viewBox="0 0 48 48" fill="none" xmlns="http://www.w3.org/2000/svg">
<path fill-rule="evenodd" clip-rule="evenodd" d="M8 11.185L20.7846 3.80385C22.641 2.73205 24.9282 2.73205 26.7846 3.80385L39.5692 11.185C41.4256 12.2568 42.5692 14.2376 42.5692 16.3812V31.1436C42.5692 33.2872 41.4256 35.2679 39.5692 36.3397L26.7846 43.7209C24.9282 44.7927 22.641 44.7927 20.7846 43.7209L8 36.3397C6.14359 35.2679 5 33.2872 5 31.1436V16.3812C5 14.2376 6.14359 12.2568 8 11.185ZM19.7846 2.0718C22.2598 0.642734 25.3094 0.642734 27.7846 2.0718L40.5692 9.45299C43.0444 10.8821 44.5692 13.5231 44.5692 16.3812V31.1436C44.5692 34.0017 43.0444 36.6427 40.5692 38.0718L27.7846 45.453C25.3094 46.8821 22.2598 46.8821 19.7846 45.453L7 38.0718C4.52479 36.6427 3 34.0017 3 31.1436V16.3812C3 13.5231 4.52479 10.8821 7 9.45299L19.7846 2.0718Z" fill="url(#paint0_linear_63_476)"/>
<path fill-rule="evenodd" clip-rule="evenodd" d="M13.5347 14.9999C13.5347 14.3096 14.0943 13.7499 14.7847 13.7499C15.475 13.7499 16.0347 14.3096 16.0347 14.9999C16.0347 15.6903 15.475 16.2499 14.7847 16.2499C14.0943 16.2499 13.5347 15.6903 13.5347 14.9999ZM14.7847 11.7499C12.9897 11.7499 11.5347 13.205 11.5347 14.9999C11.5347 16.7949 12.9897 18.2499 14.7847 18.2499C16.5796 18.2499 18.0347 16.7949 18.0347 14.9999C18.0347 13.205 16.5796 11.7499 14.7847 11.7499ZM13.5347 23.9999C13.5347 23.3096 14.0943 22.7499 14.7847 22.7499C15.475 22.7499 16.0347 23.3096 16.0347 23.9999C16.0347 24.6903 15.475 25.2499 14.7847 25.2499C14.0943 25.2499 13.5347 24.6903 13.5347 23.9999ZM14.7847 20.7499C12.9897 20.7499 11.5347 22.205 11.5347 23.9999C11.5347 25.7949 12.9897 27.2499 14.7847 27.2499C16.5796 27.2499 18.0347 25.7949 18.0347 23.9999C18.0347 22.205 16.5796 20.7499 14.7847 20.7499ZM14.7847 31.7499C14.0943 31.7499 13.5347 32.3096 13.5347 32.9999C13.5347 33.6903 14.0943 34.2499 14.7847 34.2499C15.475 34.2499 16.0347 33.6903 16.0347 32.9999C16.0347 32.3096 15.475 31.7499 14.7847 31.7499ZM11.5347 32.9999C11.5347 31.205 12.9897 29.7499 14.7847 29.7499C16.5796 29.7499 18.0347 31.205 18.0347 32.9999C18.0347 34.7949 16.5796 36.2499 14.7847 36.2499C12.9897 36.2499 11.5347 34.7949 11.5347 32.9999ZM20.0347 13.9999C19.4824 13.9999 19.0347 14.4477 19.0347 14.9999C19.0347 15.5522 19.4824 15.9999 20.0347 15.9999H35.0347C35.587 15.9999 36.0347 15.5522 36.0347 14.9999C36.0347 14.4477 35.587 13.9999 35.0347 13.9999H20.0347ZM19.0347 23.9999C19.0347 23.4477 19.4824 22.9999 20.0347 22.9999H35.0347C35.587 22.9999 36.0347 23.4477 36.0347 23.9999C36.0347 24.5522 35.587 24.9999 35.0347 24.9999H20.0347C19.4824 24.9999 19.0347 24.5522 19.0347 23.9999ZM20.0347 31.9999C19.4824 31.9999 19.0347 32.4477 19.0347 32.9999C19.0347 33.5522 19.4824 33.9999 20.0347 33.9999H35.0347C35.587 33.9999 36.0347 33.5522 36.0347 32.9999C36.0347 32.4477 35.587 31.9999 35.0347 31.9999H20.0347Z" fill="url(#paint1_linear_63_476)"/>
<defs>
<linearGradient id="paint0_linear_63_476" x1="21.1073" y1="-32.7879" x2="74.6369" y2="-9.1379" gradientUnits="userSpaceOnUse">
<stop stop-color="#671BC9"/>
<stop offset="1" stop-color="#FD0F9E"/>
</linearGradient>
<linearGradient id="paint1_linear_63_476" x1="22.2067" y1="-6.43366" x2="52.761" y2="8.35017" gradientUnits="userSpaceOnUse">
<stop stop-color="#671BC9"/>
<stop offset="1" stop-color="#FD0F9E"/>
</linearGradient>
</defs>
</svg>
