<svg width="48" height="48" viewBox="0 0 48 48" fill="none" xmlns="http://www.w3.org/2000/svg">
<path d="M27.5 3.17543C25.3342 1.925 22.6658 1.925 20.5 3.17543L7.71539 10.5566C5.54959 11.8071 4.21539 14.1179 4.21539 16.6188V31.3812C4.21539 33.8821 5.54959 36.1929 7.71539 37.4434L20.5 44.8246C22.6658 46.075 25.3342 46.075 27.5 44.8246L40.2846 37.4434C42.4504 36.1929 43.7846 33.8821 43.7846 31.3812V16.6188C43.7846 14.1179 42.4504 11.8071 40.2846 10.5566L27.5 3.17543Z" fill="url(#paint0_linear_63_452)" stroke="url(#paint1_linear_63_452)" stroke-width="2"/>
<path d="M23.7845 17.2509C19.7535 17.1829 15.5845 19.9999 12.9635 22.8849C12.6884 23.1903 12.5361 23.5868 12.5361 23.9979C12.5361 24.409 12.6884 24.8055 12.9635 25.1109C15.5275 27.9349 19.6845 30.8169 23.7845 30.7479C27.8845 30.8169 32.0425 27.9349 34.6085 25.1109C34.8836 24.8055 35.0359 24.409 35.0359 23.9979C35.0359 23.5868 34.8836 23.1903 34.6085 22.8849C31.9845 19.9999 27.8155 17.1829 23.7845 17.2509Z" stroke="#071741" stroke-width="2" stroke-linecap="round" stroke-linejoin="round"/>
<path d="M27.5347 24C27.5345 24.7416 27.3144 25.4665 26.9022 26.0831C26.49 26.6996 25.9043 27.1801 25.219 27.4638C24.5338 27.7475 23.7798 27.8216 23.0525 27.6768C22.3251 27.532 21.657 27.1747 21.1327 26.6503C20.6083 26.1258 20.2513 25.4576 20.1067 24.7302C19.962 24.0028 20.0364 23.2488 20.3202 22.5637C20.6041 21.8785 21.0847 21.2929 21.7014 20.8809C22.318 20.4689 23.043 20.249 23.7847 20.249C24.2772 20.2488 24.765 20.3458 25.2201 20.5342C25.6752 20.7227 26.0887 20.999 26.437 21.3474C26.7852 21.6957 27.0614 22.1093 27.2498 22.5644C27.4381 23.0196 27.5349 23.5074 27.5347 24Z" stroke="#071741" stroke-width="2" stroke-linecap="round" stroke-linejoin="round"/>
<defs>
<linearGradient id="paint0_linear_63_452" x1="27.0915" y1="-35.625" x2="-32.77" y2="-6.66078" gradientUnits="userSpaceOnUse">
<stop stop-color="#671BC9"/>
<stop offset="1" stop-color="#FD0F9E"/>
</linearGradient>
<linearGradient id="paint1_linear_63_452" x1="27.0915" y1="-35.625" x2="-32.77" y2="-6.66078" gradientUnits="userSpaceOnUse">
<stop stop-color="#671BC9"/>
<stop offset="1" stop-color="#FD0F9E"/>
</linearGradient>
</defs>
</svg>
