<svg width="48" height="48" viewBox="0 0 48 48" fill="none" xmlns="http://www.w3.org/2000/svg">
<path fill-rule="evenodd" clip-rule="evenodd" d="M20.7846 3.80385L8 11.185C6.14359 12.2568 5 14.2376 5 16.3812V31.1436C5 33.2872 6.14359 35.2679 8 36.3397L20.7846 43.7209C22.641 44.7927 24.9282 44.7927 26.7846 43.7209L39.5692 36.3397C41.4256 35.2679 42.5692 33.2872 42.5692 31.1436V16.3812C42.5692 14.2376 41.4256 12.2568 39.5692 11.185L26.7846 3.80385C24.9282 2.73205 22.641 2.73205 20.7846 3.80385ZM27.7846 2.0718C25.3094 0.642734 22.2598 0.642734 19.7846 2.0718L7 9.45299C4.52479 10.8821 3 13.5231 3 16.3812V31.1436C3 34.0017 4.52479 36.6427 7 38.0718L19.7846 45.453C22.2598 46.8821 25.3094 46.8821 27.7846 45.453L40.5692 38.0718C43.0444 36.6427 44.5692 34.0017 44.5692 31.1436V16.3812C44.5692 13.5231 43.0444 10.8821 40.5692 9.45299L27.7846 2.0718ZM19.8754 13.5747C20.0334 13.5093 20.2078 13.4944 20.3746 13.5321L23.3563 17.502C23.3229 17.5043 23.2894 17.5068 23.2559 17.5097C22.0997 17.6078 20.9937 18.0259 20.0616 18.7172C19.1296 19.4084 18.4084 20.3454 17.9788 21.4234C17.5492 22.5013 17.4281 23.6776 17.6292 24.8204C17.8303 25.9632 18.3456 27.0275 19.1174 27.894C19.7198 28.5704 20.4599 29.1055 21.2846 29.4655V31.2624C21.2846 31.8147 21.7323 32.2624 22.2846 32.2624H25.2846C25.8369 32.2624 26.2846 31.8147 26.2846 31.2624V29.4669C27.2735 29.0373 28.1384 28.3566 28.79 27.4867C29.1574 26.9962 29.4481 26.4575 29.6558 25.8892L30.7891 27.398C30.3846 27.5093 30.0785 27.8695 30.0559 28.3114C30.0277 28.8629 30.452 29.3329 31.0036 29.3611L32.3138 29.4281L30.7891 27.398L30.7896 27.3979L32.3146 29.4281C32.8978 29.4582 33.476 29.307 33.9698 28.9953C34.4639 28.6834 34.8492 28.2262 35.0729 27.6865C35.2965 27.1467 35.3475 26.551 35.2189 25.9811C35.0902 25.4112 34.7883 24.8952 34.3545 24.5039L34.3544 24.5038L33.3832 23.6276L33.3831 23.6275C33.2971 23.5497 33.2283 23.4547 33.1813 23.3487C33.1342 23.2427 33.1098 23.1279 33.1098 23.0119C33.1098 22.8959 33.1342 22.7811 33.1813 22.6751C33.2283 22.5692 33.2969 22.4744 33.3827 22.3966L33.3832 22.3962L34.3545 21.5199L34.3555 21.5189C34.7886 21.1271 35.0897 20.6109 35.2175 20.0411C35.3454 19.4713 35.2937 18.8759 35.0696 18.3366C34.8455 17.7973 34.4599 17.3407 33.9659 17.0293C33.4722 16.7182 32.8943 16.5674 32.3115 16.5977L32.3103 16.5978L31.0042 16.6637L31.0035 16.6637C30.8877 16.6696 30.7719 16.6512 30.6637 16.6095C30.5555 16.5679 30.4573 16.504 30.3753 16.422C30.2934 16.3399 30.2296 16.2416 30.1881 16.1334C30.1465 16.0251 30.1282 15.9094 30.1342 15.7936L30.1343 15.7926L30.2013 14.4846L30.2013 14.4846C30.2312 13.9012 30.0798 13.323 29.7678 12.8292C29.4558 12.3354 28.9986 11.9504 28.4589 11.7269C27.9193 11.5034 27.3237 11.4526 26.7539 11.5812C26.1844 11.7099 25.6687 12.0116 25.2775 12.4451L25.2775 12.4451L25.277 12.4456L24.3995 13.4171L24.3993 13.4174C24.3216 13.5034 24.2268 13.5721 24.1209 13.6192C24.0151 13.6663 23.9005 13.6906 23.7846 13.6906C23.6687 13.6906 23.5542 13.6663 23.4483 13.6192C23.3424 13.5721 23.2476 13.5034 23.1699 13.4174L23.1697 13.4171L22.2922 12.4456L22.2917 12.4451L22.2917 12.4451C21.9005 12.0116 21.3848 11.7099 20.8153 11.5812C20.2456 11.4526 19.6499 11.5034 19.1103 11.7269C18.5706 11.9504 18.1134 12.3354 17.8014 12.8292C17.4894 13.323 17.338 13.9012 17.3679 14.4846L17.3679 14.4846L17.4349 15.7926L17.435 15.7936C17.441 15.9094 17.4227 16.0251 17.3812 16.1334C17.3396 16.2416 17.2758 16.3399 17.1939 16.422C17.1119 16.504 17.0137 16.5679 16.9055 16.6095C16.7973 16.6512 16.6817 16.6696 16.566 16.6637L16.5658 16.6637L15.2602 16.5958L15.2592 16.5958C14.6757 16.5647 14.0968 16.7151 13.6023 17.0264C13.1074 17.3379 12.7213 17.7951 12.497 18.3351C12.2727 18.875 12.2214 19.4712 12.3499 20.0416C12.4785 20.6119 12.7806 21.1283 13.2147 21.5199L13.215 21.5201L14.186 22.3962L14.1864 22.3966C14.2723 22.4743 14.3409 22.5692 14.388 22.6751C14.435 22.7811 14.4594 22.8959 14.4594 23.0119C14.4594 23.1279 14.435 23.2427 14.388 23.3487C14.3409 23.4548 14.2721 23.5498 14.186 23.6276L13.2147 24.5039L13.2143 24.5043C12.7807 24.896 12.479 25.4123 12.3508 25.9824C12.2226 26.5525 12.2741 27.1483 12.4983 27.688C12.7225 28.2276 13.1083 28.6845 13.6028 28.9959C14.0969 29.3071 14.6751 29.4577 15.2582 29.4271L15.2595 29.427L16.565 29.3611C17.1166 29.3333 17.5412 28.8636 17.5133 28.312C17.4855 27.7604 17.0158 27.3358 16.4642 27.3637L15.1562 27.4297L15.1537 27.4298C14.9829 27.4388 14.8134 27.3948 14.6686 27.3036C14.5239 27.2124 14.4109 27.0786 14.3453 26.9206C14.2796 26.7626 14.2645 26.5882 14.3021 26.4213C14.3396 26.2545 14.4277 26.1035 14.5545 25.9889L14.5545 25.9888L14.5549 25.9885L15.5265 25.1119L15.5272 25.1112C15.8207 24.8459 16.0553 24.522 16.2159 24.1604C16.3764 23.7988 16.4594 23.4075 16.4594 23.0119C16.4594 22.6163 16.3764 22.225 16.2159 21.8634C16.0553 21.5018 15.8207 21.1779 15.5272 20.9126L15.5265 20.9119L14.5545 20.0349L14.5543 20.0347C14.4271 19.9201 14.3386 19.7688 14.301 19.6018C14.2633 19.4348 14.2784 19.2603 14.344 19.1022C14.4097 18.9441 14.5228 18.8102 14.6676 18.719C14.8125 18.6278 14.9821 18.5838 15.1531 18.593L15.1547 18.593L16.4627 18.661L16.4635 18.6611C16.8589 18.6813 17.2543 18.6183 17.6238 18.4761C17.9934 18.3339 18.329 18.1156 18.6088 17.8354C18.8887 17.5553 19.1066 17.2195 19.2484 16.8498C19.3903 16.4801 19.4529 16.0849 19.4323 15.6895L19.4322 15.6892L19.3653 14.3822L19.3653 14.3822C19.3565 14.2114 19.4009 14.0421 19.4922 13.8975C19.5836 13.7529 19.7174 13.6402 19.8754 13.5747ZM29.656 25.8887L30.7896 27.3979C30.8899 27.3703 30.9961 27.3581 31.1056 27.3637L32.4166 27.4307L32.4174 27.4307C32.5882 27.4396 32.7576 27.3953 32.9023 27.304C33.0469 27.2127 33.1597 27.0789 33.2252 26.9208C33.2907 26.7628 33.3057 26.5884 33.268 26.4215C33.2303 26.2546 33.1419 26.1035 33.0149 25.989L33.0147 25.9889L32.0427 25.1119L32.042 25.1112C31.7485 24.8459 31.5139 24.522 31.3534 24.1604C31.1928 23.7988 31.1098 23.4075 31.1098 23.0119C31.1098 22.6163 31.1928 22.225 31.3534 21.8634C31.5139 21.5018 31.7485 21.1779 32.042 20.9126L32.0427 20.9119L33.0137 20.0359L33.0143 20.0353C33.1408 19.9207 33.2287 19.7697 33.2661 19.6032C33.3035 19.4363 33.2884 19.262 33.2227 19.1041C33.1571 18.9462 33.0442 18.8125 32.8996 18.7214C32.7549 18.6302 32.5856 18.5861 32.4149 18.595L32.413 18.5951L31.1058 18.6611L31.1053 18.6611L31.105 18.6611C30.7098 18.6813 30.3147 18.6182 29.9454 18.4761C29.5758 18.3339 29.2402 18.1156 28.9604 17.8354C28.6805 17.5553 28.4626 17.2195 28.3208 16.8498C28.179 16.4804 28.1164 16.0853 28.1369 15.6902L28.1369 15.69L28.137 15.6892L28.2039 14.3822L28.2039 14.3822C28.2127 14.2114 28.1683 14.0421 28.077 13.8975C27.9857 13.7529 27.8518 13.6402 27.6938 13.5747C27.5358 13.5093 27.3614 13.4944 27.1946 13.5321C27.0278 13.5698 26.8767 13.6582 26.7622 13.7852L26.7617 13.7857L25.8839 14.7574L25.8837 14.7577C25.6186 15.0513 25.2948 15.2861 24.9333 15.4468C24.5717 15.6075 24.1803 15.6906 23.7846 15.6906C23.3889 15.6906 22.9975 15.6075 22.6359 15.4468C22.2744 15.2861 21.9506 15.0513 21.6855 14.7577L21.6853 14.7574L20.8075 13.7857L20.807 13.7852C20.6925 13.6582 20.5415 13.5698 20.3746 13.5321L23.3565 17.5019C24.4794 17.4248 25.6029 17.6524 26.6081 18.1614C27.6434 18.6856 28.5122 19.4876 29.1174 20.4777C29.7224 21.4675 30.0399 22.6061 30.0346 23.7661C30.0326 24.4949 29.903 25.2127 29.656 25.8887ZM28.0347 23.7301C28.0334 22.9506 27.8177 22.1862 27.4109 21.5208C26.9994 20.8475 26.4086 20.3021 25.7046 19.9457C25.47 19.8269 25.2259 19.7306 24.9756 19.6575L28.0347 23.7301ZM24.9753 19.6574C24.4747 19.5113 23.9492 19.458 23.4251 19.5025C22.6389 19.5692 21.8868 19.8536 21.253 20.3236C20.6192 20.7936 20.1288 21.4308 19.8367 22.1638C19.5445 22.8968 19.4622 23.6967 19.599 24.4738C19.7357 25.2509 20.0861 25.9746 20.6109 26.5639C21.1357 27.1531 21.8142 27.5846 22.5703 27.8101C22.9941 27.9364 23.2846 28.3262 23.2846 28.7684V30.2624H24.2846V28.7684C24.2846 28.3253 24.5762 27.9351 25.0011 27.8094C25.8753 27.551 26.6427 27.0172 27.1893 26.2876C27.7358 25.558 28.0323 24.6715 28.0346 23.7599L28.0346 23.7576C28.0347 23.7487 28.0347 23.7397 28.0347 23.7308L24.9753 19.6574ZM21.2846 34.2624C21.2846 33.7101 21.7323 33.2624 22.2846 33.2624H25.2846C25.8369 33.2624 26.2846 33.7101 26.2846 34.2624C26.2846 34.8147 25.8369 35.2624 25.2846 35.2624H22.2846C21.7323 35.2624 21.2846 34.8147 21.2846 34.2624Z" fill="url(#paint0_linear_63_340)"/>
<defs>
<linearGradient id="paint0_linear_63_340" x1="21.1073" y1="-32.7879" x2="74.6369" y2="-9.1379" gradientUnits="userSpaceOnUse">
<stop stop-color="#671BC9"/>
<stop offset="1" stop-color="#FD0F9E"/>
</linearGradient>
</defs>
</svg>
