<svg width="48" height="48" viewBox="0 0 48 48" fill="none" xmlns="http://www.w3.org/2000/svg">
<path fill-rule="evenodd" clip-rule="evenodd" d="M8 11.185L20.7846 3.80385C22.641 2.73205 24.9282 2.73205 26.7846 3.80385L39.5692 11.185C41.4256 12.2568 42.5692 14.2376 42.5692 16.3812V31.1436C42.5692 33.2872 41.4256 35.2679 39.5692 36.3397L26.7846 43.7209C24.9282 44.7927 22.641 44.7927 20.7846 43.7209L8 36.3397C6.14359 35.2679 5 33.2872 5 31.1436V16.3812C5 14.2376 6.14359 12.2568 8 11.185ZM19.7846 2.0718C22.2598 0.642734 25.3094 0.642734 27.7846 2.0718L40.5692 9.45299C43.0444 10.8821 44.5692 13.5231 44.5692 16.3812V31.1436C44.5692 34.0017 43.0444 36.6427 40.5692 38.0718L27.7846 45.453C25.3094 46.8821 22.2598 46.8821 19.7846 45.453L7 38.0718C4.52479 36.6427 3 34.0017 3 31.1436V16.3812C3 13.5231 4.52479 10.8821 7 9.45299L19.7846 2.0718Z" fill="#6075AA"/>
<path d="M23.7845 17.2509C19.7535 17.1829 15.5845 19.9999 12.9635 22.8849C12.6884 23.1903 12.5361 23.5868 12.5361 23.9979C12.5361 24.409 12.6884 24.8055 12.9635 25.1109C15.5275 27.9349 19.6845 30.8169 23.7845 30.7479C27.8845 30.8169 32.0425 27.9349 34.6085 25.1109C34.8836 24.8055 35.0359 24.409 35.0359 23.9979C35.0359 23.5868 34.8836 23.1903 34.6085 22.8849C31.9845 19.9999 27.8155 17.1829 23.7845 17.2509Z" stroke="#6075AA" stroke-width="2" stroke-linecap="round" stroke-linejoin="round"/>
<path d="M27.5347 24C27.5345 24.7416 27.3144 25.4665 26.9022 26.0831C26.49 26.6996 25.9043 27.1801 25.219 27.4638C24.5338 27.7475 23.7798 27.8216 23.0525 27.6768C22.3251 27.532 21.657 27.1747 21.1327 26.6503C20.6083 26.1258 20.2513 25.4576 20.1067 24.7302C19.962 24.0028 20.0364 23.2488 20.3202 22.5637C20.6041 21.8785 21.0847 21.2929 21.7014 20.8809C22.318 20.4689 23.043 20.249 23.7847 20.249C24.2772 20.2488 24.765 20.3458 25.2201 20.5342C25.6752 20.7227 26.0887 20.999 26.437 21.3474C26.7852 21.6957 27.0614 22.1093 27.2498 22.5644C27.4381 23.0196 27.5349 23.5074 27.5347 24Z" stroke="#6075AA" stroke-width="2" stroke-linecap="round" stroke-linejoin="round"/>
</svg>
