<svg width="48" height="48" viewBox="0 0 48 48" fill="none" xmlns="http://www.w3.org/2000/svg">
<path fill-rule="evenodd" clip-rule="evenodd" d="M8 11.185L20.7846 3.80385C22.641 2.73205 24.9282 2.73205 26.7846 3.80385L39.5692 11.185C41.4256 12.2568 42.5692 14.2376 42.5692 16.3812V31.1436C42.5692 33.2872 41.4256 35.2679 39.5692 36.3397L26.7846 43.7209C24.9282 44.7927 22.641 44.7927 20.7846 43.7209L8 36.3397C6.14359 35.2679 5 33.2872 5 31.1436V16.3812C5 14.2376 6.14359 12.2568 8 11.185ZM19.7846 2.0718C22.2598 0.642734 25.3094 0.642734 27.7846 2.0718L40.5692 9.45299C43.0444 10.8821 44.5692 13.5231 44.5692 16.3812V31.1436C44.5692 34.0017 43.0444 36.6427 40.5692 38.0718L27.7846 45.453C25.3094 46.8821 22.2598 46.8821 19.7846 45.453L7 38.0718C4.52479 36.6427 3 34.0017 3 31.1436V16.3812C3 13.5231 4.52479 10.8821 7 9.45299L19.7846 2.0718Z" fill="url(#paint0_linear_63_392)"/>
<path fill-rule="evenodd" clip-rule="evenodd" d="M24.5775 12.0428C24.7651 11.8553 25.0194 11.7499 25.2846 11.7499C27.9368 11.7499 30.4803 12.8035 32.3557 14.6789C34.2311 16.5542 35.2846 19.0978 35.2846 21.7499C35.2846 22.0152 35.1793 22.2695 34.9917 22.457C34.8042 22.6446 34.5498 22.7499 34.2846 22.7499H25.2846C24.7323 22.7499 24.2846 22.3022 24.2846 21.7499V12.7499C24.2846 12.4847 24.39 12.2304 24.5775 12.0428ZM26.2846 13.8127V20.7499H33.2219C33.0011 18.9969 32.2041 17.3557 30.9415 16.0931C29.6789 14.8305 28.0376 14.0335 26.2846 13.8127ZM17.703 17.3617C19.1197 16.6312 20.6906 16.2501 22.2845 16.2499C22.5498 16.2499 22.8041 16.3553 22.9917 16.5428C23.1793 16.7303 23.2846 16.9847 23.2846 17.2499V25.9041L28.6319 32.7091C28.7958 32.9176 28.8701 33.1827 28.8385 33.4461C28.8069 33.7094 28.672 33.9494 28.4634 34.1133C27.21 35.098 25.7394 35.7689 24.1741 36.07C22.6088 36.371 20.9943 36.2935 19.465 35.844C17.9358 35.3944 16.5361 34.5858 15.3828 33.4855C14.2295 32.3853 13.3559 31.0253 12.8348 29.5189C12.3137 28.0125 12.1603 26.4034 12.3874 24.8256C12.6144 23.2479 13.2153 21.7473 14.1399 20.449C15.0646 19.1506 16.2862 18.0921 17.703 17.3617ZM21.2846 18.3128C20.3572 18.4297 19.4549 18.7086 18.6195 19.1393C17.486 19.7237 16.5087 20.5705 15.769 21.6092C15.0293 22.6479 14.5486 23.8483 14.367 25.1105C14.1853 26.3727 14.3081 27.66 14.7249 28.8651C15.1418 30.0702 15.8407 31.1582 16.7633 32.0384C17.686 32.9186 18.8057 33.5655 20.0291 33.9252C21.2525 34.2848 22.5442 34.3468 23.7964 34.106C24.7194 33.9284 25.6012 33.5902 26.4027 33.1091L21.4983 26.8678C21.3599 26.6916 21.2846 26.474 21.2846 26.2499V18.3128ZM25.2846 23.7499C24.9018 23.7499 24.5526 23.9685 24.3852 24.3128C24.2179 24.6571 24.2618 25.0668 24.4983 25.3678L30.0593 32.4448C30.4004 32.8788 31.0286 32.9544 31.4629 32.6137C32.6547 31.6785 33.6182 30.4845 34.2803 29.1219C34.9424 27.7594 35.2859 26.264 35.2846 24.7491C35.2842 24.1972 34.8366 23.7499 34.2846 23.7499H25.2846ZM30.9757 30.374L27.3422 25.7499H33.2227C33.1143 26.6153 32.8646 27.4593 32.4815 28.2478C32.0983 29.0362 31.5891 29.7541 30.9757 30.374Z" fill="url(#paint1_linear_63_392)"/>
<defs>
<linearGradient id="paint0_linear_63_392" x1="21.1073" y1="-32.7879" x2="74.6369" y2="-9.1379" gradientUnits="userSpaceOnUse">
<stop stop-color="#671BC9"/>
<stop offset="1" stop-color="#FD0F9E"/>
</linearGradient>
<linearGradient id="paint1_linear_63_392" x1="22.3037" y1="-6.43366" x2="51.6475" y2="6.89472" gradientUnits="userSpaceOnUse">
<stop stop-color="#671BC9"/>
<stop offset="1" stop-color="#FD0F9E"/>
</linearGradient>
</defs>
</svg>
