<svg width="48" height="48" viewBox="0 0 48 48" fill="none" xmlns="http://www.w3.org/2000/svg">
<path fill-rule="evenodd" clip-rule="evenodd" d="M8 11.185L20.7846 3.80385C22.641 2.73205 24.9282 2.73205 26.7846 3.80385L39.5692 11.185C41.4256 12.2568 42.5692 14.2376 42.5692 16.3812V31.1436C42.5692 33.2872 41.4256 35.2679 39.5692 36.3397L26.7846 43.7209C24.9282 44.7927 22.641 44.7927 20.7846 43.7209L8 36.3397C6.14359 35.2679 5 33.2872 5 31.1436V16.3812C5 14.2376 6.14359 12.2568 8 11.185ZM19.7846 2.0718C22.2598 0.642734 25.3094 0.642734 27.7846 2.0718L40.5692 9.45299C43.0444 10.8821 44.5692 13.5231 44.5692 16.3812V31.1436C44.5692 34.0017 43.0444 36.6427 40.5692 38.0718L27.7846 45.453C25.3094 46.8821 22.2598 46.8821 19.7846 45.453L7 38.0718C4.52479 36.6427 3 34.0017 3 31.1436V16.3812C3 13.5231 4.52479 10.8821 7 9.45299L19.7846 2.0718Z" fill="#6075AA"/>
<path fill-rule="evenodd" clip-rule="evenodd" d="M24.5778 12.0428C24.7653 11.8553 25.0197 11.7499 25.2849 11.7499C27.937 11.7499 30.4806 12.8035 32.3559 14.6789C34.2313 16.5542 35.2849 19.0978 35.2849 21.7499C35.2849 22.0152 35.1795 22.2695 34.992 22.457C34.8044 22.6446 34.5501 22.7499 34.2849 22.7499H25.2849C24.7326 22.7499 24.2849 22.3022 24.2849 21.7499V12.7499C24.2849 12.4847 24.3902 12.2304 24.5778 12.0428ZM26.2849 13.8127V20.7499H33.2222C33.0013 18.9969 32.2043 17.3557 30.9417 16.0931C29.6791 14.8305 28.0379 14.0335 26.2849 13.8127ZM17.7032 17.3617C19.12 16.6312 20.6908 16.2501 22.2848 16.2499C22.55 16.2499 22.8044 16.3553 22.9919 16.5428C23.1795 16.7303 23.2849 16.9847 23.2849 17.2499V25.9041L28.6322 32.7091C28.796 32.9176 28.8703 33.1827 28.8387 33.4461C28.8071 33.7094 28.6722 33.9494 28.4637 34.1133C27.2103 35.098 25.7396 35.7689 24.1744 36.07C22.6091 36.371 20.9945 36.2935 19.4653 35.844C17.936 35.3944 16.5364 34.5858 15.383 33.4855C14.2297 32.3853 13.3561 31.0253 12.835 29.5189C12.314 28.0125 12.1606 26.4034 12.3876 24.8256C12.6146 23.2479 13.2155 21.7473 14.1402 20.449C15.0648 19.1506 16.2865 18.0921 17.7032 17.3617ZM21.2849 18.3128C20.3575 18.4297 19.4551 18.7086 18.6197 19.1393C17.4863 19.7237 16.509 20.5705 15.7693 21.6092C15.0295 22.6479 14.5488 23.8483 14.3672 25.1105C14.1856 26.3727 14.3083 27.66 14.7252 28.8651C15.142 30.0702 15.8409 31.1582 16.7636 32.0384C17.6862 32.9186 18.8059 33.5655 20.0293 33.9252C21.2527 34.2848 22.5444 34.3468 23.7966 34.106C24.7196 33.9284 25.6015 33.5902 26.4029 33.1091L21.4986 26.8678C21.3601 26.6916 21.2849 26.474 21.2849 26.2499V18.3128ZM25.2849 23.7499C24.902 23.7499 24.5528 23.9685 24.3855 24.3128C24.2181 24.6571 24.262 25.0668 24.4986 25.3678L30.0596 32.4448C30.4006 32.8788 31.0289 32.9544 31.4632 32.6137C32.655 31.6785 33.6184 30.4845 34.2806 29.1219C34.9427 27.7594 35.2861 26.264 35.2849 24.7491C35.2844 24.1972 34.8368 23.7499 34.2849 23.7499H25.2849ZM30.976 30.374L27.3424 25.7499H33.2229C33.1146 26.6153 32.8648 27.4593 32.4817 28.2478C32.0986 29.0362 31.5893 29.7541 30.976 30.374Z" fill="#6075AA"/>
</svg>
