<svg width="48" height="48" viewBox="0 0 48 48" fill="none" xmlns="http://www.w3.org/2000/svg">
<path d="M27.5 3.17543C25.3342 1.925 22.6658 1.925 20.5 3.17543L7.71539 10.5566C5.54959 11.8071 4.21539 14.1179 4.21539 16.6188V31.3812C4.21539 33.8821 5.54959 36.1929 7.71539 37.4434L20.5 44.8246C22.6658 46.075 25.3342 46.075 27.5 44.8246L40.2846 37.4434C42.4504 36.1929 43.7846 33.8821 43.7846 31.3812V16.6188C43.7846 14.1179 42.4504 11.8071 40.2846 10.5566L27.5 3.17543Z" fill="url(#paint0_linear_63_347)" stroke="url(#paint1_linear_63_347)" stroke-width="2"/>
<g clip-path="url(#clip0_63_347)">
<path d="M16.73 28.6L15.422 28.666C15.0448 28.686 14.6707 28.5886 14.3511 28.3874C14.0315 28.1861 13.7821 27.8907 13.6372 27.5419C13.4923 27.1931 13.4589 26.808 13.5418 26.4395C13.6247 26.071 13.8197 25.7372 14.1 25.484L15.072 24.607C15.2618 24.4354 15.4135 24.226 15.5173 23.9922C15.6211 23.7583 15.6748 23.5053 15.6748 23.2495C15.6748 22.9937 15.6211 22.7407 15.5173 22.5068C15.4135 22.273 15.2618 22.0636 15.072 21.892L14.1 21.015C13.8193 20.7619 13.6239 20.428 13.5408 20.0593C13.4577 19.6907 13.4909 19.3053 13.6359 18.9562C13.7809 18.6072 14.0305 18.3117 14.3503 18.1103C14.6702 17.909 15.0446 17.8118 15.422 17.832L16.73 17.9C16.9856 17.9131 17.2411 17.8724 17.48 17.7804C17.7189 17.6885 17.9358 17.5474 18.1167 17.3663C18.2976 17.1852 18.4385 16.9682 18.5302 16.7292C18.6219 16.4902 18.6623 16.2346 18.649 15.979L18.582 14.671C18.5626 14.2939 18.6605 13.9201 18.8622 13.601C19.0639 13.2818 19.3594 13.0329 19.7082 12.8884C20.0571 12.744 20.4421 12.7111 20.8103 12.7943C21.1786 12.8775 21.5121 13.0726 21.765 13.353L22.643 14.325C22.8144 14.5149 23.0237 14.6667 23.2575 14.7706C23.4912 14.8745 23.7442 14.9282 24 14.9282C24.2558 14.9282 24.5087 14.8745 24.7425 14.7706C24.9762 14.6667 25.1856 14.5149 25.357 14.325L26.235 13.353C26.4879 13.0726 26.8213 12.8775 27.1896 12.7943C27.5579 12.7111 27.9429 12.744 28.2917 12.8884C28.6406 13.0329 28.9361 13.2818 29.1378 13.601C29.3394 13.9201 29.4373 14.2939 29.418 14.671L29.351 15.979C29.3376 16.2346 29.3781 16.4902 29.4698 16.7292C29.5615 16.9682 29.7023 17.1852 29.8832 17.3663C30.0641 17.5474 30.281 17.6885 30.5199 17.7804C30.7588 17.8724 31.0144 17.9131 31.27 17.9L32.578 17.834C32.9549 17.8143 33.3288 17.9117 33.6481 18.113C33.9675 18.3142 34.2167 18.6094 34.3616 18.958C34.5064 19.3065 34.5398 19.6914 34.4572 20.0597C34.3745 20.428 34.1799 20.7617 33.9 21.015L32.928 21.892C32.7382 22.0636 32.5865 22.273 32.4827 22.5068C32.3789 22.7407 32.3252 22.9937 32.3252 23.2495C32.3252 23.5053 32.3789 23.7583 32.4827 23.9922C32.5865 24.226 32.7382 24.4354 32.928 24.607L33.9 25.484C34.1804 25.7369 34.3756 26.0705 34.4588 26.4389C34.542 26.8073 34.509 27.1924 34.3644 27.5413C34.2199 27.8901 33.9708 28.1857 33.6514 28.3873C33.3321 28.5888 32.9581 28.6866 32.581 28.667L31.27 28.6" stroke="#071741" stroke-width="2" stroke-linecap="round" stroke-linejoin="round"/>
<path d="M22.5 34.5H25.5" stroke="#071741" stroke-width="2" stroke-linecap="round" stroke-linejoin="round"/>
<path d="M29.25 24C29.2547 23.0253 28.9879 22.0685 28.4795 21.2369C27.9712 20.4052 27.2414 19.7315 26.3718 19.2911C25.5022 18.8508 24.5272 18.6612 23.5559 18.7437C22.5847 18.8261 21.6556 19.1774 20.8727 19.758C20.0898 20.3386 19.484 21.1257 19.1231 22.0312C18.7622 22.9367 18.6606 23.9247 18.8295 24.8847C18.9984 25.8447 19.4313 26.7387 20.0795 27.4666C20.7278 28.1945 21.5659 28.7275 22.5 29.006V31.5H25.5V29.006C26.5807 28.6865 27.5294 28.0267 28.205 27.1248C28.8807 26.2228 29.2472 25.1269 29.25 24Z" stroke="#071741" stroke-width="2" stroke-linecap="round" stroke-linejoin="round"/>
</g>
<defs>
<linearGradient id="paint0_linear_63_347" x1="27.0915" y1="-35.625" x2="-32.77" y2="-6.66078" gradientUnits="userSpaceOnUse">
<stop stop-color="#671BC9"/>
<stop offset="1" stop-color="#FD0F9E"/>
</linearGradient>
<linearGradient id="paint1_linear_63_347" x1="27.0915" y1="-35.625" x2="-32.77" y2="-6.66078" gradientUnits="userSpaceOnUse">
<stop stop-color="#671BC9"/>
<stop offset="1" stop-color="#FD0F9E"/>
</linearGradient>
<clipPath id="clip0_63_347">
<rect width="24" height="24" fill="white" transform="translate(12 12)"/>
</clipPath>
</defs>
</svg>
